<?xml version="1.0" encoding="UTF-8"?>
<svg version="1.1" xmlns="http://www.w3.org/2000/svg" width="500" height="500">
<path d="M0 0 C0.88026706 -0.00453111 1.76053412 -0.00906223 2.66747594 -0.01373065 C5.60513316 -0.02634968 8.54260439 -0.02475588 11.48028564 -0.02310181 C13.59152463 -0.02908864 15.70276143 -0.03589454 17.81399536 -0.04345703 C23.54142123 -0.06110916 29.26878731 -0.06581211 34.99623775 -0.0670886 C38.57722277 -0.06851129 42.15819264 -0.07278314 45.73917389 -0.07808304 C58.23980167 -0.09658123 70.74038682 -0.10475398 83.24102783 -0.10317993 C94.88068342 -0.10197883 106.52015349 -0.12307561 118.15976214 -0.15466726 C128.16339829 -0.18084795 138.16697391 -0.19154646 148.17064404 -0.19026911 C154.14071251 -0.18975998 160.11061609 -0.19541646 166.08065033 -0.21662521 C171.69827053 -0.23603745 177.31556907 -0.23611144 182.93320084 -0.22159195 C184.98943936 -0.21950643 187.04569817 -0.22418935 189.10190201 -0.23631287 C206.29609025 -0.3310865 219.03963277 2.3990834 232.08282471 14.26351929 C244.79381998 27.33113567 245.62583291 41.06819093 245.56549072 58.3374939 C245.57255663 60.4674082 245.58130446 62.59731748 245.59159851 64.72721863 C245.61402637 70.48760272 245.61116819 76.24771118 245.60227704 82.00812221 C245.59715306 86.82661334 245.60447114 91.64505332 245.61174911 96.46353918 C245.62872708 107.83498137 245.6252033 119.2062893 245.60845947 130.57772827 C245.59153758 142.28908044 245.60737868 154.00005989 245.63968235 165.71137136 C245.66641469 175.78645989 245.67364446 185.86143265 245.66516727 195.93655306 C245.66024907 201.94517674 245.662394 207.95357621 245.68295479 213.96217155 C245.70136917 219.61358391 245.6952825 225.26446187 245.67075539 230.91584587 C245.66576592 232.98294817 245.66918845 235.05009159 245.68190384 237.1171608 C245.74422855 248.1245083 245.65476144 257.43451633 240.03204346 267.26742554 C239.31783407 268.52991827 239.31783407 268.52991827 238.58919621 269.81791592 C232.16001517 280.63612026 221.09255909 288.42073792 209.01944143 291.83690423 C203.67729796 293.08330053 198.68541959 293.55509713 193.20994568 293.52812195 C192.36951086 293.5319475 191.52907604 293.53577304 190.6631735 293.53971452 C187.8722465 293.54995919 185.08152852 293.5460687 182.29058838 293.54208374 C180.27919832 293.54643497 178.26780991 293.55161949 176.25642395 293.55757141 C170.81002511 293.5709292 165.3636958 293.5715436 159.91728377 293.56900811 C155.36235096 293.56793609 150.80743208 293.57282774 146.25250226 293.57761353 C135.50151509 293.58869785 124.75056287 293.58915234 113.99957275 293.58309937 C102.92796044 293.57706146 91.85647526 293.58936846 80.78488463 293.61066943 C71.26186859 293.62831384 61.73889292 293.63428226 52.21586114 293.63103169 C46.53589787 293.62922303 40.85602528 293.63181323 35.17607689 293.64574623 C29.83178202 293.65836597 24.48768457 293.6563413 19.14339256 293.64333534 C17.1891676 293.64097893 15.23492856 293.64367045 13.28071976 293.65195847 C-4.86708954 293.72333689 -20.12450057 291.48897356 -33.90155029 278.52523804 C-37.5884647 274.49681361 -40.52093569 270.14360579 -42.96795654 265.26742554 C-43.46968258 264.28543182 -43.46968258 264.28543182 -43.98154449 263.28359985 C-48.198579 253.64602387 -47.53008112 243.67336235 -47.48553467 233.36508179 C-47.49096152 231.25325031 -47.49808733 229.14142263 -47.5067749 227.02960205 C-47.52494406 221.31885798 -47.51796713 215.60840435 -47.50525856 209.89765549 C-47.49509768 203.90770462 -47.5045328 197.91777782 -47.51080322 191.92782593 C-47.51807063 181.87073321 -47.50851567 171.81375818 -47.48944092 161.75668335 C-47.46767402 150.14646377 -47.47472603 138.53652522 -47.49674654 126.92631245 C-47.51492632 116.93956512 -47.51744623 106.95290215 -47.50699186 96.96614361 C-47.50077114 91.00956812 -47.49988221 85.05312452 -47.51313782 79.09655762 C-47.52473318 73.49527015 -47.51660312 67.89434334 -47.49356079 62.29309464 C-47.48829339 60.24331383 -47.48975353 58.19350242 -47.49861145 56.14373398 C-47.57641848 36.30224271 -47.57641848 36.30224271 -42.96795654 27.26742554 C-42.19065186 25.7012146 -42.19065186 25.7012146 -41.39764404 24.10336304 C-34.02850077 12.43863877 -24.36343237 4.44175699 -10.98865652 0.69621158 C-7.34314795 -0.07735362 -3.71324111 -0.01415377 0 0 Z M39.03204346 69.26742554 C38.20704346 69.95836304 37.38204346 70.64930054 36.53204346 71.36117554 C18.75599673 86.75263063 7.03963649 107.89190636 4.03204346 131.26742554 C3.75298499 135.39735689 3.69761486 139.50395907 3.71954346 143.64242554 C3.72691528 145.29540649 3.72691528 145.29540649 3.73443604 146.98178101 C3.84813833 154.86630615 4.55467802 161.74649938 7.03204346 169.26742554 C7.40716064 170.51781616 7.78227783 171.76820679 8.16876221 173.05648804 C9.92507124 178.74448648 11.62025411 183.91485479 15.09454346 188.82992554 C16.71116782 191.60785917 17.07206917 192.88349465 16.73516846 196.11508179 C15.91369062 199.13797611 14.95562092 202.06527237 13.86651611 205.00180054 C12.90636654 207.60864314 12.0049987 210.2325369 11.10626221 212.86117554 C9.73349303 216.86326289 8.34483735 220.85911329 6.93829346 224.84945679 C5.44563064 229.08525339 3.9691858 233.32495767 2.53204346 237.57992554 C2.23298096 238.46293335 1.93391846 239.34594116 1.62579346 240.25570679 C0.93768558 242.2375398 0.93768558 242.2375398 1.03204346 244.26742554 C8.48948573 242.99674689 15.45619333 240.93141331 22.59454346 238.45492554 C24.70717167 237.7394527 26.82045848 237.02592171 28.93438721 236.31430054 C29.96547607 235.96689819 30.99656494 235.61949585 32.05889893 235.26156616 C36.24448475 233.86201735 40.43823977 232.50086692 44.65704346 231.20492554 C45.32421387 230.98924927 45.99138428 230.773573 46.67877197 230.55136108 C52.91475921 228.67597904 57.19926951 229.6341687 62.84454346 232.57992554 C86.14707673 243.62302166 112.42908887 241.85379791 136.34454346 234.07992554 C147.67693182 229.72850197 159.34492957 222.79101728 168.03204346 214.26742554 C168.03204346 213.60742554 168.03204346 212.94742554 168.03204346 212.26742554 C168.69204346 212.26742554 169.35204346 212.26742554 170.03204346 212.26742554 C173.26890127 208.79983447 176.12088954 205.00965144 179.03204346 201.26742554 C179.64821533 200.50043335 180.26438721 199.73344116 180.89923096 198.94320679 C189.63137175 187.41436653 194.87433278 173.47978429 197.03204346 159.26742554 C197.21251221 158.15109741 197.39298096 157.03476929 197.57891846 155.88461304 C200.50951751 132.49034817 195.2824495 107.58146969 180.89923096 88.59164429 C180.28305908 87.8246521 179.66688721 87.05765991 179.03204346 86.26742554 C178.25087158 85.26324585 177.46969971 84.25906616 176.66485596 83.22445679 C173.45407209 79.15519772 173.45407209 79.15519772 170.03204346 75.26742554 C169.37204346 75.26742554 168.71204346 75.26742554 168.03204346 75.26742554 C168.03204346 74.60742554 168.03204346 73.94742554 168.03204346 73.26742554 C148.18376305 54.84574028 122.57879734 46.42498498 95.73516846 47.02133179 C75.25950267 47.85445098 54.60494517 56.07371714 39.03204346 69.26742554 Z " fill="#00A337" transform="translate(150.96795654296875,96.73257446289063)"/>
<path d="M0 0 C4.95575221 3.87497646 9.01028706 8.15987206 13 13 C13.51691406 13.61746094 14.03382813 14.23492187 14.56640625 14.87109375 C26.20108861 29.48279667 30.35937646 46.07443088 30.3125 64.375 C30.32861328 65.62539062 30.34472656 66.87578125 30.36132812 68.1640625 C30.37007932 84.89634108 24.46607987 101.78252799 14 115 C13.34 115 12.68 115 12 115 C11.76152344 115.56074219 11.52304687 116.12148438 11.27734375 116.69921875 C3.43803164 130.81956992 -15.00571555 139.45891612 -29.7890625 144.15234375 C-49.58547708 149.37840453 -69.3271118 147.01174999 -88 139 C-88.71454346 138.53609863 -89.42908691 138.07219727 -90.1652832 137.59423828 C-93.97829388 135.24771081 -96.61046215 133.85404963 -101.15649414 134.33154297 C-104.62343807 135.26286974 -107.94543785 136.38077578 -111.3125 137.625 C-113.599854 138.41003933 -115.88759984 139.19393813 -118.17578125 139.9765625 C-119.17520752 140.33830566 -120.17463379 140.70004883 -121.2043457 141.07275391 C-123.79814034 141.93304838 -126.31128536 142.5298053 -129 143 C-128.41639741 138.84533276 -127.45246012 135.20597038 -125.94140625 131.296875 C-125.55662109 130.23339844 -125.17183594 129.16992188 -124.77539062 128.07421875 C-123.96854543 125.86286526 -123.13258289 123.66191416 -122.26757812 121.47265625 C-120.03936953 115.37365081 -120.03936953 115.37365081 -121.0222168 109.16137695 C-122.54723458 106.63797805 -124.19776776 104.33084026 -126 102 C-130.13767298 94.30988323 -132.3742825 86.55698603 -134 78 C-134.185625 77.02546875 -134.37125 76.0509375 -134.5625 75.046875 C-137.4459966 54.96538084 -131.82500382 32.76910158 -119.81933594 16.38916016 C-107.20887274 0.02026576 -89.83621499 -12.3467414 -69.3125 -16.25 C-68.43891846 -16.41765869 -67.56533691 -16.58531738 -66.6652832 -16.75805664 C-42.545648 -21.1166531 -19.52298392 -14.20976677 0 0 Z M-92.78125 24.734375 C-98.34240148 31.76759599 -100.00085618 39.16127006 -99 48 C-96.14495281 60.72316334 -87.57983268 71.85031434 -78.75 81.109375 C-77 83 -77 83 -76 85 C-75.34 85 -74.68 85 -74 85 C-74 85.66 -74 86.32 -74 87 C-66.29077089 94.87256023 -56.95435769 99.62349415 -47 104 C-45.19595703 104.79664063 -45.19595703 104.79664063 -43.35546875 105.609375 C-34.71666314 109.06101899 -25.65572247 111.06484618 -16.51953125 108.23046875 C-14.53117433 107.29411305 -12.80082662 106.25445932 -11 105 C-10.071875 104.443125 -9.14375 103.88625 -8.1875 103.3125 C-4.41214843 99.32141405 -3.14387003 94.34987717 -2.8125 88.9375 C-2.874375 88.298125 -2.93625 87.65875 -3 87 C-7.81784837 84.19530173 -12.67022748 81.55516227 -17.6875 79.125 C-18.33783203 78.79242188 -18.98816406 78.45984375 -19.65820312 78.1171875 C-23.31465182 76.29816249 -23.31465182 76.29816249 -27.25390625 76.5859375 C-29.13322328 78.10788999 -30.69496523 79.64652422 -32.25 81.5 C-32.77078125 82.1084375 -33.2915625 82.716875 -33.828125 83.34375 C-35.19252997 84.93395821 -35.19252997 84.93395821 -35 87 C-41.61828119 88.74481959 -45.73438701 86.26355414 -51.4609375 83.15234375 C-60.88678229 77.63668471 -71.76387785 67.73965812 -75 57 C-73.65097106 54.00215792 -72.04092728 52.04206415 -69.75 49.6875 C-67.67953329 46.50785469 -67.94867783 44.8692061 -68.50585938 41.20874023 C-69.33695494 37.49385804 -70.7974111 34.1392906 -72.375 30.6875 C-72.67921875 29.98560547 -72.9834375 29.28371094 -73.296875 28.56054688 C-75.43276108 23.74145572 -75.43276108 23.74145572 -79 20 C-84.40383361 20 -88.80145816 20.85931453 -92.78125 24.734375 Z " fill="#01A437" transform="translate(304,176)"/>
<path d="M0 0 C0.33 0 0.66 0 1 0 C1.11627527 11.26641487 1.20490807 22.53268504 1.25906086 33.79957962 C1.28506249 39.03229341 1.32028686 44.26459416 1.37719727 49.49707031 C1.43185516 54.55457318 1.46149135 59.61168085 1.47438622 64.66945648 C1.4835658 66.59103356 1.50149034 68.51259105 1.52865028 70.43399811 C1.67589924 81.2909712 1.51240425 90.28396152 -4 100 C-4.4763237 100.84266418 -4.9526474 101.68532837 -5.44340515 102.55352783 C-11.87714095 113.3690623 -22.93845583 121.15302136 -35.01260203 124.56947869 C-40.3547455 125.815875 -45.34662387 126.28767159 -50.82209778 126.26069641 C-52.08275001 126.26643473 -52.08275001 126.26643473 -53.36886996 126.27228898 C-56.15979696 126.28253365 -58.95051494 126.27864317 -61.74145508 126.2746582 C-63.75284514 126.27900944 -65.76423354 126.28419396 -67.77561951 126.29014587 C-73.22201835 126.30350366 -78.66834766 126.30411806 -84.11475968 126.30158257 C-88.6696925 126.30051056 -93.22461138 126.3054022 -97.77954119 126.310188 C-108.53052836 126.32127231 -119.28148059 126.32172681 -130.0324707 126.31567383 C-141.10408302 126.30963593 -152.1755682 126.32194292 -163.24715883 126.3432439 C-172.77017487 126.36088831 -182.29315054 126.36685673 -191.81618232 126.36360615 C-197.49614559 126.36179749 -203.17601818 126.36438769 -208.85596657 126.37832069 C-214.20026144 126.39094043 -219.54435888 126.38891576 -224.88865089 126.37590981 C-226.84287586 126.3735534 -228.79711489 126.37624492 -230.7513237 126.38453293 C-250.60993042 126.46264021 -265.31662961 123.2845628 -280 109 C-279.505 108.01 -279.505 108.01 -279 107 C-278.5875 107.45375 -278.175 107.9075 -277.75 108.375 C-276.06583565 110.0914384 -276.06583565 110.0914384 -273.875 111.0625 C-272 112 -272 112 -271 114 C-266.75588089 116.40984262 -266.75588089 116.40984262 -262 117 C-262 117.99 -262 118.98 -262 120 C-261.46375 119.814375 -260.9275 119.62875 -260.375 119.4375 C-257.38009386 118.88580676 -254.96254171 119.39402556 -252 120 C-252 120.66 -252 121.32 -252 122 C-251.44570312 121.83242188 -250.89140625 121.66484375 -250.3203125 121.4921875 C-249.23363281 121.18667969 -249.23363281 121.18667969 -248.125 120.875 C-247.04605469 120.56175781 -247.04605469 120.56175781 -245.9453125 120.2421875 C-244.98238281 120.12230469 -244.98238281 120.12230469 -244 120 C-243.01 120.99 -243.01 120.99 -242 122 C-239.37799759 122.19757915 -236.86152473 122.2692644 -234.23832703 122.25396729 C-233.02211512 122.25864726 -233.02211512 122.25864726 -231.78133327 122.26342177 C-229.04905505 122.27143501 -226.31699689 122.26506519 -223.5847168 122.25878906 C-221.63196685 122.26149751 -219.67921792 122.26505762 -217.72647095 122.26940918 C-212.41028218 122.27855461 -207.09417074 122.2749796 -201.77798057 122.26865101 C-196.22159852 122.26359998 -190.66522324 122.26828015 -185.10884094 122.27142334 C-175.77315071 122.27506652 -166.43749208 122.27025562 -157.10180664 122.26074219 C-146.30458689 122.24986652 -135.50744271 122.25337536 -124.71022481 122.264395 C-115.44902991 122.27346925 -106.18785779 122.27475218 -96.92665988 122.26951766 C-91.39159679 122.2663975 -85.85656922 122.26598971 -80.32150841 122.27259064 C-75.11524925 122.27836512 -69.90908752 122.27436523 -64.7028389 122.26280212 C-62.79083353 122.26015569 -60.87881998 122.26092035 -58.96681786 122.26532745 C-56.35864222 122.27078518 -53.75077955 122.26394585 -51.1426239 122.25396729 C-50.38425364 122.25842873 -49.62588337 122.26289017 -48.84453219 122.26748681 C-44.75829449 122.23712463 -41.69731514 121.72911953 -38 120 C-36.13047469 119.69364921 -34.25475019 119.42311607 -32.375 119.1875 C-28.00966569 118.59887863 -28.00966569 118.59887863 -25.125 115.4375 C-24.75375 114.633125 -24.3825 113.82875 -24 113 C-21.3125 112.1875 -21.3125 112.1875 -19 112 C-19 111.01 -19 110.02 -19 109 C-17.36935236 107.94228261 -15.69719127 106.94726954 -14 106 C-11.34587182 104.00940386 -11.03431808 103.15911108 -10.3125 99.8125 C-10.209375 98.884375 -10.10625 97.95625 -10 97 C-8.02 96.34 -6.04 95.68 -4 95 C-1.11082992 79.6311301 -0.65891072 64.79483237 -0.875 49.1875 C-0.92228541 44.7643707 -0.96013872 40.34123354 -0.9921875 35.91796875 C-1.00086853 34.84755341 -1.00954956 33.77713806 -1.01849365 32.67428589 C-1.07157611 21.76542822 -0.60225951 10.89015728 0 0 Z " fill="#0B823B" transform="translate(395,264)"/>
<path d="M0 0 C0.88591159 -0.00311998 1.77182317 -0.00623996 2.68458056 -0.00945449 C5.64092413 -0.01740575 8.59706081 -0.01112213 11.55340576 -0.00482178 C13.6776237 -0.00753283 15.80184069 -0.01109441 17.92605591 -0.01544189 C23.68601319 -0.02455227 29.44589876 -0.02102777 35.20585728 -0.01468372 C41.2316005 -0.00961941 47.25733759 -0.01431614 53.28308105 -0.01745605 C63.39761457 -0.02109331 73.51211887 -0.01630171 83.62664795 -0.0067749 C95.33002917 0.00412093 107.03334077 0.0005749 118.73672032 -0.01042771 C128.78099262 -0.01949339 138.82524393 -0.02078975 148.869519 -0.01555037 C154.87057688 -0.01242823 160.87160198 -0.01202829 166.87265778 -0.01862335 C172.50988159 -0.02438613 178.14701524 -0.02041955 183.78422928 -0.00883484 C185.85672226 -0.00618303 187.92922279 -0.00696217 190.0017128 -0.01136017 C192.82269728 -0.01679623 195.64338977 -0.01000528 198.46435547 0 C199.29128694 -0.00446144 200.11821841 -0.00892289 200.97020841 -0.01351953 C204.83303537 0.01319757 206.68778282 0.06034887 209.97821045 2.25396729 C201.49207084 2.27743318 193.00594543 2.29505284 184.51978111 2.30577946 C180.57671311 2.31093506 176.63366776 2.31789432 172.69061279 2.32940674 C155.09413565 2.37947394 137.55097499 2.32025831 119.97821045 1.25396729 C119.97821045 1.91396729 119.97821045 2.57396729 119.97821045 3.25396729 C119.17383545 3.37771729 118.36946045 3.50146729 117.54071045 3.62896729 C116.69508545 3.83521729 115.84946045 4.04146729 114.97821045 4.25396729 C114.64821045 4.91396729 114.31821045 5.57396729 113.97821045 6.25396729 C113.97821045 5.59396729 113.97821045 4.93396729 113.97821045 4.25396729 C109.87417682 4.16702687 105.77037916 4.11359579 101.66571045 4.06646729 C100.49846436 4.04133057 99.33121826 4.01619385 98.12860107 3.99029541 C97.01033936 3.98062744 95.89207764 3.97095947 94.7399292 3.96099854 C93.70827637 3.94528809 92.67662354 3.92957764 91.6137085 3.91339111 C88.92443991 4.02519015 88.92443991 4.02519015 87.11810303 5.77227783 C86.74193848 6.26123535 86.36577393 6.75019287 85.97821045 7.25396729 C85.97821045 6.26396729 85.97821045 5.27396729 85.97821045 4.25396729 C82.41021276 3.1459397 79.09626869 3.13344462 75.37371826 3.14044189 C74.71964493 3.14029587 74.06557159 3.14014984 73.39167786 3.13999939 C71.23819619 3.14069387 69.08480193 3.14846445 66.93133545 3.15631104 C65.43489631 3.15817687 63.93845657 3.15959999 62.4420166 3.16059875 C58.5096263 3.16441094 54.57727313 3.17423012 50.64489746 3.18530273 C46.62970481 3.1955448 42.61450615 3.20010236 38.5993042 3.20513916 C30.72558928 3.21585357 22.85190448 3.23291437 14.97821045 3.25396729 C14.64821045 4.24396729 14.31821045 5.23396729 13.97821045 6.25396729 C13.97821045 5.59396729 13.97821045 4.93396729 13.97821045 4.25396729 C10.67821045 5.24396729 7.37821045 6.23396729 3.97821045 7.25396729 C2.65821045 5.93396729 1.33821045 4.61396729 -0.02178955 3.25396729 C-1.01178955 3.74896729 -1.01178955 3.74896729 -2.02178955 4.25396729 C-4.02979411 3.97284665 -6.03193006 3.64328762 -8.02178955 3.25396729 C-8.02178955 3.91396729 -8.02178955 4.57396729 -8.02178955 5.25396729 C-9.03499268 5.4357251 -9.03499268 5.4357251 -10.06866455 5.62115479 C-11.40671143 5.87252197 -11.40671143 5.87252197 -12.77178955 6.12896729 C-13.6535083 6.29138916 -14.53522705 6.45381104 -15.44366455 6.62115479 C-18.01344038 7.1511861 -18.01344038 7.1511861 -20.16241455 8.32427979 C-22.02178955 9.25396729 -22.02178955 9.25396729 -25.02178955 9.25396729 C-24.02178955 6.25396729 -24.02178955 6.25396729 -22.42022705 5.15631104 C-21.75249268 4.8379126 -21.0847583 4.51951416 -20.39678955 4.19146729 C-19.41839111 3.71000244 -19.41839111 3.71000244 -18.42022705 3.21881104 C-12.11383174 0.68187351 -6.73980044 -0.03675907 0 0 Z " fill="#1BB150" transform="translate(151.02178955078125,96.74603271484375)"/>
<path d="M0 0 C1.81757813 -0.00386719 1.81757813 -0.00386719 3.671875 -0.0078125 C6.9797956 0.11497058 9.99604171 0.5519759 13.25 1.125 C14.67461985 1.27935369 16.10057648 1.42163888 17.52734375 1.5546875 C18.28853516 1.62816406 19.04972656 1.70164063 19.83398438 1.77734375 C21.39840803 1.92534732 22.96354332 2.0660187 24.52929688 2.19921875 C29.64777298 2.70976835 33.66683661 3.74677441 38.25 6.125 C38.745 7.115 38.745 7.115 39.25 8.125 C40.905611 9.05893441 42.59950522 9.92602783 44.3125 10.75 C45.23160156 11.19601563 46.15070313 11.64203125 47.09765625 12.1015625 C47.80792969 12.43929687 48.51820313 12.77703125 49.25 13.125 C46.25 14.125 46.25 14.125 43.90234375 13.234375 C43.00644531 12.78578125 42.11054688 12.3371875 41.1875 11.875 C18.41115059 1.09877177 -7.03837364 1.876286 -30.5 9.9375 C-41.08382458 13.75607558 -50.14484644 18.85177455 -58.75 26.125 C-59.56339844 26.79273438 -60.37679687 27.46046875 -61.21484375 28.1484375 C-70.22061253 35.83595045 -76.58688536 45.1099387 -82.75 55.125 C-83.08 55.125 -83.41 55.125 -83.75 55.125 C-83.37257767 48.96043524 -81.59129692 45.95124485 -77.75 41.125 C-78.41 40.135 -79.07 39.145 -79.75 38.125 C-79.09 37.135 -78.43 36.145 -77.75 35.125 C-77.09 35.785 -76.43 36.445 -75.75 37.125 C-74.96625 36.135 -74.1825 35.145 -73.375 34.125 C-72.50875 33.135 -71.6425 32.145 -70.75 31.125 C-70.09 31.125 -69.43 31.125 -68.75 31.125 C-68.42 30.135 -68.09 29.145 -67.75 28.125 C-65.43191636 27.09014123 -63.09824702 26.0894586 -60.75 25.125 C-60.42 24.465 -60.09 23.805 -59.75 23.125 C-59.09 23.125 -58.43 23.125 -57.75 23.125 C-57.46125 22.2175 -57.1725 21.31 -56.875 20.375 C-55.98468224 17.80297092 -55.03505587 15.51153234 -53.75 13.125 C-53.028125 13.351875 -52.30625 13.57875 -51.5625 13.8125 C-47.94859254 14.21404527 -46.71867671 13.10411781 -43.75 11.125 C-43.028125 11.021875 -42.30625 10.91875 -41.5625 10.8125 C-40.964375 10.585625 -40.36625 10.35875 -39.75 10.125 C-38.4454344 7.12884054 -38.4454344 7.12884054 -37.75 4.125 C-36.863125 4.33125 -35.97625 4.5375 -35.0625 4.75 C-31.43284965 5.16090381 -30.04158027 4.4753919 -26.75 3.125 C-25.08178677 3.45050502 -23.41500443 3.78346063 -21.75 4.125 C-21.13511719 3.81691406 -20.52023438 3.50882813 -19.88671875 3.19140625 C-17.5234774 2.01194576 -15.74444508 1.76837612 -13.125 1.5625 C-8.4998314 1.18603279 -4.76339138 -0.01004935 0 0 Z " fill="#1B9F49" transform="translate(248.75,140.875)"/>
<path d="M0 0 C1.2065625 0.0309375 1.2065625 0.0309375 2.4375 0.0625 C2.4375 0.7225 2.4375 1.3825 2.4375 2.0625 C-3.60447843 3.62685201 -9.19567876 4.35006967 -15.42738342 4.30300903 C-16.69461051 4.30557231 -16.69461051 4.30557231 -17.98743814 4.30818737 C-20.79257688 4.31145777 -23.59747153 4.30051929 -26.40258789 4.28955078 C-28.4235941 4.28898614 -30.44460072 4.28930427 -32.46560669 4.29043579 C-37.93394382 4.29100822 -43.40219271 4.27927157 -48.87050939 4.26528788 C-54.59200798 4.25276232 -60.31350873 4.25160858 -66.03501892 4.24923706 C-76.86139985 4.24302766 -87.68774025 4.22662413 -98.51410335 4.20653808 C-110.84297147 4.18416229 -123.17184154 4.17318142 -135.50072491 4.16314721 C-160.85467238 4.14225744 -186.20858392 4.10709195 -211.5625 4.0625 C-211.5625 3.4025 -211.5625 2.7425 -211.5625 2.0625 C-210.49144547 2.05826806 -209.42039095 2.05403612 -208.31688023 2.04967594 C-182.29616603 1.94663623 -156.27548038 1.83790793 -130.2548151 1.72316074 C-117.67159532 1.66780335 -105.08837271 1.61431729 -92.50512695 1.56518555 C-81.54188115 1.52237446 -70.57865643 1.47610436 -59.61544317 1.42562145 C-53.80662948 1.39899566 -47.99782004 1.37414206 -42.18898201 1.35342598 C-36.72833197 1.33389711 -31.26772216 1.30976481 -25.80710793 1.28200912 C-23.79667641 1.27261874 -21.78623605 1.26495068 -19.77579117 1.25908089 C-17.04356245 1.25085331 -14.31143229 1.23658639 -11.57923889 1.22071838 C-10.77283449 1.21974028 -9.96643008 1.21876217 -9.13558918 1.21775442 C-5.66155786 1.19157767 -3.16124718 0.07710359 0 0 Z " fill="#18683E" transform="translate(359.5625,385.9375)"/>
<path d="M0 0 C1 3 1 3 0.375 5.375 C-1.2965472 8.56613556 -3.39612945 10.51723971 -6 13 C-8.58706997 15.8464976 -10.76348684 18.29046052 -12 22 C-12.804375 22.598125 -13.60875 23.19625 -14.4375 23.8125 C-17.23889764 25.79908421 -17.23889764 25.79908421 -17.875 29 C-19.520454 33.38787733 -21.81264246 34.05586971 -26 36 C-26.66 36 -27.32 36 -28 36 C-27.505 38.475 -27.505 38.475 -27 41 C-27.59167969 41.04898438 -28.18335938 41.09796875 -28.79296875 41.1484375 C-33.19104472 41.56456867 -36.96928897 42.04965595 -41 44 C-41 44.66 -41 45.32 -41 46 C-42.66666667 46.66666667 -44.33333333 47.33333333 -46 48 C-46.86625 48.391875 -47.7325 48.78375 -48.625 49.1875 C-51 50 -51 50 -54 49 C-56.03263152 49.27890375 -56.03263152 49.27890375 -58.1875 49.875 C-61.29627972 50.63311486 -64.31888824 51.21286429 -67.5 51.5625 C-70.81819318 51.61354631 -70.81819318 51.61354631 -72 53 C-74.82446477 53.13101617 -77.61208904 53.18997746 -80.4375 53.1875 C-81.70303711 53.18737915 -81.70303711 53.18737915 -82.99414062 53.18725586 C-92.42052585 53.10403034 -102.998984 53.00033867 -112 50 C-112 49.34 -112 48.68 -112 48 C-112.60328125 47.96261719 -113.2065625 47.92523438 -113.828125 47.88671875 C-118.49259754 47.50302827 -121.4033788 47.19699662 -125 44 C-127.14733927 43.29485154 -127.14733927 43.29485154 -129 43 C-129 42.34 -129 41.68 -129 41 C-131.64 41 -134.28 41 -137 41 C-137 41.66 -137 42.32 -137 43 C-137.66 43 -138.32 43 -139 43 C-139.33 43.66 -139.66 44.32 -140 45 C-140 44.34 -140 43.68 -140 43 C-143.465 43.495 -143.465 43.495 -147 44 C-143.54375199 40.54375199 -138.69204082 39.94511108 -134 39 C-129.80271827 39 -126.89262168 40.51826566 -123.1875 42.3125 C-99.88496673 53.35559612 -73.60295459 51.58637237 -49.6875 43.8125 C-39.30679604 39.82934913 -29.40477966 33.99008351 -21.41796875 26.21484375 C-20 25 -20 25 -18 25 C-18 24.34 -18 23.68 -18 23 C-17.34 23 -16.68 23 -16 23 C-15.67 22.01 -15.34 21.02 -15 20 C-14.34 20 -13.68 20 -13 20 C-12.75121094 19.45214844 -12.50242187 18.90429688 -12.24609375 18.33984375 C-10.7537544 15.53761406 -8.95869692 13.10841803 -7.0625 10.5625 C-4.5089948 7.13077992 -2.14383593 3.70298933 0 0 Z " fill="#068E36" transform="translate(337,286)"/>
<path d="M0 0 C0.33 0 0.66 0 1 0 C1.125 5.75 1.125 5.75 0 8 C-0.09779584 10.58043185 -0.13455555 13.13386859 -0.12698364 15.71456909 C-0.12854363 16.52043807 -0.13010362 17.32630705 -0.13171089 18.1565963 C-0.13571761 20.87248223 -0.13253237 23.58831282 -0.12939453 26.30419922 C-0.13074882 28.24559054 -0.13252891 30.18698161 -0.13470459 32.12837219 C-0.13927862 37.41608731 -0.13748868 42.703783 -0.1343255 47.99149847 C-0.13179815 53.52591855 -0.13414083 59.06033694 -0.13571167 64.59475708 C-0.13753379 73.90106505 -0.13512755 83.2073651 -0.13037109 92.51367188 C-0.12494436 103.25506538 -0.12667937 113.99643987 -0.1321975 124.7378329 C-0.13674653 133.9634638 -0.13736994 143.18908899 -0.13475883 152.41472065 C-0.13320384 157.92261067 -0.1329806 163.43049176 -0.13629532 168.9383812 C-0.13919947 174.12739887 -0.13715184 179.31639226 -0.13140106 184.50540733 C-0.13008637 186.40318575 -0.13044547 188.30096624 -0.13266373 190.19874382 C-0.14289738 199.84939721 -0.06292399 209.39302333 1 219 C2.32 219.33 3.64 219.66 5 220 C4.67 220.99 4.34 221.98 4 223 C4.31478446 224.33783393 4.64587656 225.67203709 5 227 C4.67 227.33 4.34 227.66 4 228 C4.25248627 231.51745287 4.25248627 231.51745287 5 235 C5.66 235.33 6.32 235.66 7 236 C7.73075648 238.3140622 8.40138258 240.64828869 9 243 C2.57088771 237.28523352 -1.40240912 229.6096789 -2.18569613 220.94610023 C-2.25640129 218.63030527 -2.26664574 216.32197702 -2.25396729 214.00512695 C-2.25708727 213.12203763 -2.26020725 212.23894831 -2.26342177 211.3290987 C-2.27137303 208.38209083 -2.26508932 205.43529051 -2.25878906 202.48828125 C-2.2615002 200.37055338 -2.26506182 198.25282646 -2.26940918 196.13510132 C-2.27852084 190.3914038 -2.27499393 184.6477782 -2.26865101 178.90407944 C-2.26358472 172.89088498 -2.26828422 166.87769665 -2.27142334 160.86450195 C-2.27506114 150.76675309 -2.27026874 140.66903348 -2.26074219 130.57128906 C-2.24985801 118.89979742 -2.25338372 107.22837566 -2.264395 95.55688572 C-2.27347315 85.53293288 -2.27475056 75.50900106 -2.26951766 65.48504543 C-2.26640088 59.49950961 -2.26598065 53.51400661 -2.27259064 47.5284729 C-2.27837111 41.90108598 -2.27435426 36.2737891 -2.26280212 30.6464119 C-2.26015931 28.5820493 -2.26091417 26.51767912 -2.26532745 24.45331955 C-2.2707992 21.63373535 -2.2639289 18.81443896 -2.25396729 15.99487305 C-2.25842873 15.17959294 -2.26289017 14.36431284 -2.26748681 13.52432728 C-2.2341092 8.64753686 -1.55096189 4.62993835 0 0 Z " fill="#208B43" transform="translate(106,128)"/>
<path d="M0 0 C12.27386225 2.03849111 21.40926056 11.27464744 28.39453125 21.01953125 C33.24218101 30.01893945 34.57817837 38.03570567 34.45410156 48.18237305 C34.45468567 49.45194351 34.45526978 50.72151398 34.45587158 52.02955627 C34.4570087 55.47530926 34.43366472 58.92049335 34.40557575 62.36611533 C34.38039252 65.98019683 34.37820688 69.59429461 34.37347412 73.20845032 C34.36109362 80.03640683 34.32833965 86.86410397 34.28807616 93.6919468 C34.24320401 101.47194454 34.22133279 109.25195535 34.20129442 117.03205049 C34.15960188 133.02151666 34.08934699 149.01072474 34 165 C33.67 165 33.34 165 33 165 C32.99061433 164.39169185 32.98122866 163.78338369 32.97155857 163.15664196 C32.74227864 148.31493895 32.5084087 133.4733135 32.26950932 118.6317625 C32.15408589 111.45432989 32.04018263 104.27687932 31.92993164 97.09936523 C31.83376725 90.83916788 31.73467565 84.57902466 31.63215441 78.31892806 C31.57803413 75.00816006 31.52575857 71.69738005 31.4761219 68.38654137 C31.42029021 64.67908933 31.35928554 60.9717548 31.29711914 57.2644043 C31.28201294 56.18186371 31.26690674 55.09932312 31.25134277 53.98397827 C31.08760427 44.76556861 30.81650714 35.82505571 28 27 C28 26.34 28 25.68 28 25 C27.34 24.67 26.68 24.34 26 24 C25.5359375 22.7934375 25.5359375 22.7934375 25.0625 21.5625 C24.15452711 18.70136041 24.15452711 18.70136041 21 17 C21 16.01 21 15.02 21 14 C20.01 14 19.02 14 18 14 C17.484375 13.29875 16.96875 12.5975 16.4375 11.875 C13.50092177 8.41134362 10.36012434 6.6421433 6.4375 4.4296875 C4.15185708 3.08907002 2.08484573 1.63119874 0 0 Z " fill="#149F46" transform="translate(362,99)"/>
<path d="M0 0 C0.66 0 1.32 0 2 0 C1.84015625 1.23234375 1.6803125 2.4646875 1.515625 3.734375 C-0.05325342 17.96554873 -0.51458146 33.29437819 4 47 C4.56267578 48.87558594 4.56267578 48.87558594 5.13671875 50.7890625 C6.89302779 56.47706095 8.58821066 61.64742925 12.0625 66.5625 C13.67912436 69.34043364 14.04002572 70.61606911 13.703125 73.84765625 C12.8864114 76.85301901 11.93509474 79.76231585 10.85205078 82.68164062 C9.83622306 85.44562344 8.88470127 88.22871935 7.93359375 91.015625 C5.99089344 96.6897234 4.00706277 102.34838002 2 108 C0.95297814 104.2735915 0.92557943 100.86986958 1 97 C1.66 97 2.32 97 3 97 C3.20496094 96.14535156 3.40992188 95.29070312 3.62109375 94.41015625 C3.89050781 93.30542969 4.15992188 92.20070313 4.4375 91.0625 C4.70433594 89.96035156 4.97117188 88.85820312 5.24609375 87.72265625 C6 85 6 85 7 84 C7.80030917 81.03010269 8.374818 78.01087652 9 75 C9.268125 73.906875 9.53625 72.81375 9.8125 71.6875 C10.05315156 68.23816103 9.16095033 67.62401112 7 65 C5.07959643 60.84917255 4 57.61778439 4 53 C3.34 53 2.68 53 2 53 C1.06380187 49.84493858 0.8942877 47.03413498 0.9375 43.75 C0.94652344 42.85796875 0.95554688 41.9659375 0.96484375 41.046875 C0.97644531 40.37140625 0.98804688 39.6959375 1 39 C-0.32 38.67 -1.64 38.34 -3 38 C-2.88127168 33.96132839 -2.75699341 29.92286858 -2.62768555 25.88452148 C-2.5845116 24.51217224 -2.54282499 23.13977533 -2.50268555 21.76733398 C-2.44455608 19.78877932 -2.3805429 17.8104003 -2.31640625 15.83203125 C-2.27974854 14.64327393 -2.24309082 13.4545166 -2.20532227 12.22973633 C-2.0241968 9.38061761 -1.5914908 6.78424671 -1 4 C-1 3.01 -1 2.02 -1 1 C-0.67 0.67 -0.34 0.34 0 0 Z " fill="#1E8041" transform="translate(155,219)"/>
<path d="M0 0 C0.33 0 0.66 0 1 0 C1 5.61 1 11.22 1 17 C0.34 17 -0.32 17 -1 17 C-0.34 25.91 0.32 34.82 1 44 C1.99 44.33 2.98 44.66 4 45 C4.87890625 46.9609375 4.87890625 46.9609375 5.5625 49.375 C6.45012686 52.45411239 7.18224782 54.27337172 9 57 C9.125 60.1875 9.125 60.1875 9 63 C10.98 63.66 12.96 64.32 15 65 C15.125 72.75 15.125 72.75 14 75 C13.34 75 12.68 75 12 75 C11.95101562 75.71285156 11.90203125 76.42570312 11.8515625 77.16015625 C10.69991839 91.91311445 10.69991839 91.91311445 6 96 C5.67 96.99 5.34 97.98 5 99 C7.97 98.505 7.97 98.505 11 98 C8.08235 99.9451 6.37462715 100.45276317 3 101 C3.58360259 96.84533276 4.54753988 93.20597038 6.05859375 89.296875 C6.44337891 88.23339844 6.82816406 87.16992188 7.22460938 86.07421875 C8.03145457 83.86286526 8.86741711 81.66191416 9.73242188 79.47265625 C11.96063047 73.37365081 11.96063047 73.37365081 10.9777832 67.16137695 C9.45276542 64.63797805 7.80223224 62.33084026 6 60 C1.86232702 52.30988323 -0.3742825 44.55698603 -2 36 C-2.185625 35.02546875 -2.37125 34.0509375 -2.5625 33.046875 C-4.20023498 21.64122068 -2.63814911 11.07080432 0 0 Z " fill="#198741" transform="translate(172,218)"/>
<path d="M0 0 C22.64287134 10.73048161 49.19667617 9.81596868 72.41723633 1.61791992 C74.13176068 0.98139676 75.83404399 0.31216991 77.53515625 -0.359375 C80.1875 -1.3125 80.1875 -1.3125 83.1875 -1.3125 C78.6875 2.6875 78.6875 2.6875 74.1875 2.6875 C74.1875 3.3475 74.1875 4.0075 74.1875 4.6875 C70.8875 5.0175 67.5875 5.3475 64.1875 5.6875 C64.1875 6.3475 64.1875 7.0075 64.1875 7.6875 C63.33285156 7.82027344 62.47820312 7.95304687 61.59765625 8.08984375 C59.94056641 8.35474609 59.94056641 8.35474609 58.25 8.625 C57.14785156 8.79902344 56.04570312 8.97304688 54.91015625 9.15234375 C52.28323071 9.40595136 52.28323071 9.40595136 51.1875 10.6875 C48.36303523 10.81851617 45.57541096 10.87747746 42.75 10.875 C41.48446289 10.87487915 41.48446289 10.87487915 40.19335938 10.87475586 C30.76697415 10.79153034 20.188516 10.68783867 11.1875 7.6875 C11.1875 7.0275 11.1875 6.3675 11.1875 5.6875 C10.28257812 5.63142578 10.28257812 5.63142578 9.359375 5.57421875 C4.69490246 5.19052827 1.7841212 4.88449662 -1.8125 1.6875 C-3.95983927 0.98235154 -3.95983927 0.98235154 -5.8125 0.6875 C-5.8125 0.0275 -5.8125 -0.6325 -5.8125 -1.3125 C-8.4525 -1.3125 -11.0925 -1.3125 -13.8125 -1.3125 C-13.8125 -0.6525 -13.8125 0.0075 -13.8125 0.6875 C-14.4725 0.6875 -15.1325 0.6875 -15.8125 0.6875 C-16.1425 1.3475 -16.4725 2.0075 -16.8125 2.6875 C-16.8125 2.0275 -16.8125 1.3675 -16.8125 0.6875 C-19.1225 1.0175 -21.4325 1.3475 -23.8125 1.6875 C-17.21580218 -4.90919782 -7.58166943 -3.6714831 0 0 Z " fill="#1C783F" transform="translate(213.8125,328.3125)"/>
<path d="M0 0 C30.03 0 60.06 0 91 0 C91 0.66 91 1.32 91 2 C92.32 2.66 93.64 3.32 95 4 C91.7169902 5.6415049 88.57454967 4.51888624 85 4 C84.67 4.66 84.34 5.32 84 6 C82.02 6 80.04 6 78 6 C78 5.34 78 4.68 78 4 C74.18137244 2.52462117 71.92154718 1.73950269 68 3 C67.01 2.505 67.01 2.505 66 2 C66 2.66 66 3.32 66 4 C65.01 4.33 64.02 4.66 63 5 C63 4.34 63 3.68 63 3 C62.34 3 61.68 3 61 3 C61 3.66 61 4.32 61 5 C60.34 5 59.68 5 59 5 C59 4.01 59 3.02 59 2 C58.34 2.33 57.68 2.66 57 3 C55.44947196 3.07252236 53.89582775 3.08374517 52.34375 3.0625 C51.40273438 3.05476563 50.46171875 3.04703125 49.4921875 3.0390625 C47.52864047 3.01342873 45.56509854 2.98740025 43.6015625 2.9609375 C35.65798952 2.89635561 27.76689833 3.18772372 20 5 C19.34 4.01 18.68 3.02 18 2 C16.07558585 1.49468134 16.07558585 1.49468134 13.8671875 1.48828125 C13.06152344 1.45283203 12.25585938 1.41738281 11.42578125 1.38085938 C10.58402344 1.35830078 9.74226563 1.33574219 8.875 1.3125 C8.02550781 1.27833984 7.17601562 1.24417969 6.30078125 1.20898438 C4.20098895 1.12640827 2.10051436 1.06153022 0 1 C0 0.67 0 0.34 0 0 Z " fill="#05BE42" transform="translate(271,98)"/>
<path d="M0 0 C1.24947922 -0.00029205 2.49895844 -0.00058411 3.78630066 -0.00088501 C7.19496456 0.00026566 10.60338314 0.01026316 14.01200366 0.02426291 C17.58075401 0.03680585 21.14950799 0.03794357 24.71827698 0.04031372 C31.46835848 0.04651805 38.21837484 0.06291462 44.96842772 0.0830127 C52.65646361 0.10540438 60.34450268 0.11637334 68.03256309 0.12640357 C83.84018715 0.14728183 99.64774629 0.18243734 115.45532227 0.22705078 C115.45532227 0.55705078 115.45532227 0.88705078 115.45532227 1.22705078 C114.50282435 1.23063331 114.50282435 1.23063331 113.53108406 1.23428822 C98.04711076 1.29354354 82.56331554 1.36916049 67.07951546 1.46276569 C59.5915175 1.5076429 52.10356625 1.54707594 44.61547852 1.57348633 C38.08533889 1.59653209 31.55534806 1.6300029 25.02532661 1.67575234 C21.57090004 1.69959642 18.11662004 1.71838266 14.66211319 1.72466469 C10.79630733 1.7318907 6.93086714 1.76240193 3.06518555 1.79467773 C1.93229599 1.79324265 0.79940643 1.79180756 -0.36781311 1.79032898 C-8.49048436 1.88591014 -16.60224261 2.22231615 -22.54467773 8.22705078 C-25.73217773 8.91455078 -25.73217773 8.91455078 -28.54467773 9.22705078 C-27.54467773 6.22705078 -27.54467773 6.22705078 -25.94311523 5.12939453 C-25.27538086 4.81099609 -24.60764648 4.49259766 -23.91967773 4.16455078 C-22.9412793 3.68308594 -22.9412793 3.68308594 -21.94311523 3.19189453 C-14.47940864 0.18939367 -8.00583744 -0.0491295 0 0 Z " fill="#26AC58" transform="translate(154.544677734375,96.77294921875)"/>
<path d="M0 0 C2.85675015 1.30629174 4.40578023 2.38733567 6.75 4.625 C12.62091347 9.76676361 19.94046485 12.82764546 27 16 C27.61891113 16.27827637 28.23782227 16.55655273 28.87548828 16.84326172 C39.46989949 21.46074381 49.97558688 23.13415492 61 19 C60 22 60 22 56.8125 23.75 C48.22714657 26.6838438 37.07859465 24.94492122 29 21 C28.34 20.34 27.68 19.68 27 19 C25.34360921 18.30819672 23.67521912 17.64487451 22 17 C19.3849475 15.70619592 16.79686331 14.36688861 14.20703125 13.0234375 C12.10306109 11.85977111 12.10306109 11.85977111 10 12 C8.64613064 10.34997172 7.31321858 8.6825613 6 7 C5.34 6.67 4.68 6.34 4 6 C4 5.34 4 4.68 4 4 C2.68 3.34 1.36 2.68 0 2 C0 1.34 0 0.68 0 0 Z " fill="#1C8542" transform="translate(230,263)"/>
<path d="M0 0 C0.33 0.66 0.66 1.32 1 2 C1.99 2.33 2.98 2.66 4 3 C4.33 2.01 4.66 1.02 5 0 C5.61488281 0.144375 6.22976562 0.28875 6.86328125 0.4375 C8.07564453 0.7159375 8.07564453 0.7159375 9.3125 1 C10.11300781 1.185625 10.91351563 1.37125 11.73828125 1.5625 C14.10695938 2.09495823 14.10695938 2.09495823 17 2 C16.49396008 4.16874252 16.00016187 5.99967627 15 8 C16.98 8.66 18.96 9.32 21 10 C21 10.66 21 11.32 21 12 C15.61236003 10.38370801 15.61236003 10.38370801 13.25097656 8.90405273 C10.31311864 7.07540967 8.15223474 5.87644425 4.63671875 6.25341797 C2.11020666 6.98389628 -0.30391538 7.84673817 -2.75 8.8125 C-4.40816086 9.43207474 -6.06954035 10.04311969 -7.734375 10.64453125 C-8.45850586 10.92659424 -9.18263672 11.20865723 -9.92871094 11.49926758 C-12.31330857 12.07574209 -13.70041116 11.77570637 -16 11 C-15.01 11 -14.02 11 -13 11 C-13 10.01 -13 9.02 -13 8 C-11.35 7.67 -9.7 7.34 -8 7 C-7.67 6.01 -7.34 5.02 -7 4 C-6.34 4 -5.68 4 -5 4 C-5 4.66 -5 5.32 -5 6 C-3.68 5.67 -2.36 5.34 -1 5 C-0.67 3.35 -0.34 1.7 0 0 Z " fill="#079239" transform="translate(199,304)"/>
<path d="M0 0 C2.78117672 1.0197648 3.81833102 1.66391238 5.25 4.3125 C6.00511726 7.01833686 6.1595955 9.20707882 6 12 C6.66 12 7.32 12 8 12 C9.46011686 21.05976121 9.46011686 21.05976121 7.5625 24.9375 C6.7890625 25.9584375 6.7890625 25.9584375 6 27 C6 27.99 6 28.98 6 30 C5.67 30.33 5.34 30.66 5 31 C5.28469203 36.02499694 5.28469203 36.02499694 8 40 C8.226875 40.721875 8.45375 41.44375 8.6875 42.1875 C10.59933705 46.28429367 13.71719668 48.9541905 17 52 C16.67 52.66 16.34 53.32 16 54 C1.87680462 40.63041386 1.87680462 40.63041386 -1 32 C0.44326963 29.11346074 1.99596715 27.00414487 4.25 24.6875 C6.24341628 21.62618214 6.33400392 19.89137828 5.6953125 16.32421875 C4.55222307 12.50321758 2.8330165 8.98189433 1.05859375 5.41796875 C0 3 0 3 0 0 Z " fill="#1D9047" transform="translate(229,201)"/>
<path d="M0 0 C0 0.66 0 1.32 0 2 C-19.28571429 12 -19.28571429 12 -29 12 C-29.33 12.99 -29.66 13.98 -30 15 C-30.66 15 -31.32 15 -32 15 C-32 15.66 -32 16.32 -32 17 C-32.66 17 -33.32 17 -34 17 C-33.75 14.125 -33.75 14.125 -33 11 C-30.14088761 8.83101819 -28.71556422 9 -25 9 C-23.31422289 8.38325228 -21.64551962 7.71727778 -20 7 C-19.01 6.67 -18.02 6.34 -17 6 C-15.77479736 2.99152582 -15.77479736 2.99152582 -15 0 C-13.63875 0.309375 -13.63875 0.309375 -12.25 0.625 C-7.40833664 1.18365346 -5.02634002 -1.39620556 0 0 Z " fill="#09B141" transform="translate(226,145)"/>
<path d="M0 0 C2.84278563 1.42139281 3.14447611 3.55708881 4.21875 6.40625 C6.84819861 15.13601938 7.33586471 23.25341652 7.3125 32.375 C7.32861328 33.62539062 7.34472656 34.87578125 7.36132812 36.1640625 C7.3669807 46.97178258 5.18421816 55.87542146 0.8125 65.6875 C0.01779297 67.48767578 0.01779297 67.48767578 -0.79296875 69.32421875 C-1.39044922 70.64873047 -1.39044922 70.64873047 -2 72 C-2.87840996 68.90279155 -2.99435406 67.09354597 -2 64 C-1.34 64 -0.68 64 0 64 C0.12375 62.906875 0.2475 61.81375 0.375 60.6875 C1 57 1 57 3 54 C3.47595813 51.45861864 3.84430075 49.00104659 4.125 46.4375 C4.2084668 45.69459717 4.29193359 44.95169434 4.37792969 44.1862793 C4.95424169 38.56253269 5.21130758 32.96452454 5.25 27.3125 C5.25918457 26.5712085 5.26836914 25.82991699 5.27783203 25.06616211 C5.25263468 20.64805829 4.56504897 17.11572038 3 13 C2.63079809 11.00630969 2.28674418 9.00720923 2 7 C1.34 7 0.68 7 0 7 C0 4.69 0 2.38 0 0 Z " fill="#1D8446" transform="translate(327,208)"/>
<path d="M0 0 C0.763125 0.226875 1.52625 0.45375 2.3125 0.6875 C2.3125 1.3475 2.3125 2.0075 2.3125 2.6875 C3.9625 2.6875 5.6125 2.6875 7.3125 2.6875 C7.8075 4.1725 7.8075 4.1725 8.3125 5.6875 C9.3025 5.6875 10.2925 5.6875 11.3125 5.6875 C11.3125 6.3475 11.3125 7.0075 11.3125 7.6875 C12.116875 7.81125 12.92125 7.935 13.75 8.0625 C14.595625 8.26875 15.44125 8.475 16.3125 8.6875 C16.8075 9.6775 16.8075 9.6775 17.3125 10.6875 C11.77896331 9.89108444 7.29728988 7.29242707 2.37109375 4.76953125 C-0.52305572 3.42460078 -0.52305572 3.42460078 -2.8984375 4.26171875 C-4.94114097 5.88963746 -6.26819493 7.53789477 -7.75 9.6875 C-9.67602828 12.46670261 -10.79954349 13.76219566 -13.6875 15.6875 C-17.81615506 15.33761398 -21.14494296 13.66006633 -24.8125 11.8125 C-26.36324219 11.04292969 -26.36324219 11.04292969 -27.9453125 10.2578125 C-30.31273891 8.90210678 -31.91629412 7.72744056 -33.6875 5.6875 C-30.9375 5.4375 -30.9375 5.4375 -27.6875 5.6875 C-25.6875 7.5 -25.6875 7.5 -23.6875 9.6875 C-20.60109728 11.59187615 -18.64920585 12.70986525 -15 12.625 C-12.20919046 11.49359073 -11.34902282 10.14022416 -9.6875 7.6875 C-9.0275 7.6875 -8.3675 7.6875 -7.6875 7.6875 C-7.419375 6.924375 -7.15125 6.16125 -6.875 5.375 C-4.28009259 -0.49768519 -4.28009259 -0.49768519 0 0 Z " fill="#268049" transform="translate(279.6875,249.3125)"/>
<path d="M0 0 C2.8203125 -0.29296875 2.8203125 -0.29296875 6.125 -0.1875 C7.76855469 -0.14689453 7.76855469 -0.14689453 9.4453125 -0.10546875 C10.28835937 -0.07066406 11.13140625 -0.03585938 12 0 C12.33 0.66 12.66 1.32 13 2 C12.33613281 2.03738281 11.67226562 2.07476562 10.98828125 2.11328125 C3.91788643 2.50455625 3.91788643 2.50455625 -2 6 C-6.58113459 12.87822772 -8.13897181 17.99104425 -8.0625 26.25 C-8.05347656 27.51328125 -8.04445312 28.7765625 -8.03515625 30.078125 C-8.02355469 31.04234375 -8.01195312 32.0065625 -8 33 C-9.97620345 31.36413724 -10.9110343 30.46176157 -11.40405273 27.90283203 C-11.43604388 25.30916979 -11.45779342 22.71886782 -11.4375 20.125 C-11.45748047 19.22652344 -11.47746094 18.32804687 -11.49804688 17.40234375 C-11.49488721 13.1241627 -11.39908847 10.65594416 -9.13671875 6.9375 C-6.8389654 4.8539796 -4.88338512 4.06229978 -2 3 C-1.34 2.01 -0.68 1.02 0 0 Z " fill="#10A340" transform="translate(214,195)"/>
<path d="M0 0 C1.13643966 3.40931897 0.86747764 4.00335456 -0.4375 7.1875 C-0.72496094 7.90292969 -1.01242188 8.61835938 -1.30859375 9.35546875 C-1.53675781 9.89816406 -1.76492187 10.44085938 -2 11 C-0.99098633 10.66154053 0.01802734 10.32308105 1.05761719 9.97436523 C4.80383565 8.72081421 8.55449216 7.48103755 12.30664062 6.24536133 C13.92962911 5.70874373 15.55139174 5.16840364 17.171875 4.62426758 C19.50207862 3.84253566 21.8363703 3.07431987 24.171875 2.30859375 C24.89493835 2.06282089 25.61800171 1.81704803 26.36297607 1.56382751 C32.59250716 -0.45319548 32.59250716 -0.45319548 36 1 C30.33315403 3.16217927 24.6349182 5.1635725 18.875 7.0625 C17.71677734 7.44631836 17.71677734 7.44631836 16.53515625 7.83789062 C13.22823664 8.93362464 9.92038636 10.0260487 6.609375 11.109375 C3.96423875 11.96570565 3.96423875 11.96570565 1.375 13.1875 C-1.25750426 14.08809356 -2.43062023 13.95162214 -5 13 C-5 10.69 -5 8.38 -5 6 C-4.34 5.67 -3.68 5.34 -3 5 C-1.9590934 3.35857037 -0.95495674 1.69287785 0 0 Z " fill="#217642" transform="translate(154,330)"/>
<path d="M0 0 C1 3 1 3 0.375 5.375 C-1.2965472 8.56613556 -3.39612945 10.51723971 -6 13 C-8.58706997 15.8464976 -10.76348684 18.29046052 -12 22 C-13.63260714 23.37482707 -15.30225062 24.70647667 -17 26 C-17.47566406 26.48082031 -17.95132812 26.96164062 -18.44140625 27.45703125 C-20.05483906 29.0542893 -21.7204738 30.36267338 -23.5625 31.6875 C-24.16191406 32.12449219 -24.76132812 32.56148438 -25.37890625 33.01171875 C-27 34 -27 34 -29 34 C-29.2475 34.61875 -29.495 35.2375 -29.75 35.875 C-31.24391702 38.41465893 -32.21539622 39.09909878 -35 40 C-37.1328125 39.54296875 -37.1328125 39.54296875 -39 39 C-38.21496094 38.49210937 -37.42992187 37.98421875 -36.62109375 37.4609375 C-29.49914388 32.81343903 -29.49914388 32.81343903 -22.875 27.5 C-20 25 -20 25 -18 25 C-18 24.34 -18 23.68 -18 23 C-17.34 23 -16.68 23 -16 23 C-15.67 22.01 -15.34 21.02 -15 20 C-14.34 20 -13.68 20 -13 20 C-12.75121094 19.45214844 -12.50242187 18.90429688 -12.24609375 18.33984375 C-10.7537544 15.53761406 -8.95869692 13.10841803 -7.0625 10.5625 C-4.5089948 7.13077992 -2.14383593 3.70298933 0 0 Z " fill="#1E7C40" transform="translate(337,286)"/>
<path d="M0 0 C2.03004872 1.6826607 2.91636963 2.60926796 3.4765625 5.2265625 C3.52554687 6.01804688 3.57453125 6.80953125 3.625 7.625 C3.60877773 10.61148183 3.60877773 10.61148183 5 13 C5.28496247 16.95061604 5.23200164 20.91536182 5.25 24.875 C5.270625 25.97070312 5.29125 27.06640625 5.3125 28.1953125 C5.34696981 35.46844239 4.68551081 42.18042069 2 49 C1.34 49.66 0.68 50.32 0 51 C0.144375 49.98164063 0.28875 48.96328125 0.4375 47.9140625 C2.61884733 31.67234024 2.47098695 16.19378946 0 0 Z " fill="#1F8244" transform="translate(346,215)"/>
<path d="M0 0 C0.33 0 0.66 0 1 0 C2.07376612 12.12162645 -2.30506009 22.67595119 -10 32 C-14.50339047 36.61678519 -19.00378533 40.5400145 -25 43 C-25 42.34 -25 41.68 -25 41 C-23.5390625 39.7109375 -23.5390625 39.7109375 -21.625 38.375 C-20.68527344 37.70597656 -20.68527344 37.70597656 -19.7265625 37.0234375 C-18 36 -18 36 -16 36 C-15.67 35.01 -15.34 34.02 -15 33 C-14.21625 32.236875 -13.4325 31.47375 -12.625 30.6875 C-9.93739761 27.93590708 -8.6415888 25.43951939 -7 22 C-6.34 21.67 -5.68 21.34 -5 21 C-4.40671655 18.59423559 -3.92032709 16.24901144 -3.5 13.8125 C-2.65794631 9.07016468 -1.63906828 4.54276251 0 0 Z " fill="#186F39" transform="translate(395,341)"/>
<path d="M0 0 C0.33 0 0.66 0 1 0 C1.33 3.96 1.66 7.92 2 12 C3.32 12.33 4.64 12.66 6 13 C5.67 13.99 5.34 14.98 5 16 C5.31478446 17.33783393 5.64587656 18.67203709 6 20 C5.67 20.33 5.34 20.66 5 21 C5.25248627 24.51745287 5.25248627 24.51745287 6 28 C6.66 28.33 7.32 28.66 8 29 C8.73075648 31.3140622 9.40138258 33.64828869 10 36 C4.73218542 31.31749815 1.46584951 25.94337386 0 19 C-0.07818636 17.48604304 -0.10789909 15.96906493 -0.09765625 14.453125 C-0.09443359 13.60878906 -0.09121094 12.76445312 -0.08789062 11.89453125 C-0.07951172 11.02183594 -0.07113281 10.14914062 -0.0625 9.25 C-0.05798828 8.36183594 -0.05347656 7.47367187 -0.04882812 6.55859375 C-0.037074 4.37232671 -0.02064249 2.18619821 0 0 Z " fill="#088834" transform="translate(105,335)"/>
<path d="M0 0 C2.00803806 1.32236653 4.00623446 2.65637539 6 4 C6.63421875 4.42023438 7.2684375 4.84046875 7.921875 5.2734375 C8.54578125 5.69882813 9.1696875 6.12421875 9.8125 6.5625 C10.39644531 6.95566406 10.98039062 7.34882813 11.58203125 7.75390625 C13 9 13 9 14 12 C14.66 12.33 15.32 12.66 16 13 C16.66666667 14.33333333 17.33333333 15.66666667 18 17 C18.66 17.33 19.32 17.66 20 18 C20.625 20.5625 20.625 20.5625 21 23 C21.99 23.33 22.98 23.66 24 24 C25.625 27.4375 25.625 27.4375 27 31 C27.33 31.66 27.66 32.32 28 33 C27.34 33.66 26.68 34.32 26 35 C25.53851563 34.11699219 25.07703125 33.23398438 24.6015625 32.32421875 C20.46490055 24.64000367 16.02649745 18.34022933 9.90625 12.109375 C8 10 8 10 8 8 C7.34 8 6.68 8 6 8 C6 7.34 6 6.68 6 6 C5.38125 5.7525 4.7625 5.505 4.125 5.25 C1.64931313 3.79371361 1.04874998 2.62187494 0 0 Z " fill="#22994B" transform="translate(313,164)"/>
<path d="M0 0 C1.66621616 0.03874921 3.33394172 0.0450286 5 0 C4.34 0.33 3.68 0.66 3 1 C2.67 1.99 2.34 2.98 2 4 C2 3.34 2 2.68 2 2 C-2.95 3.485 -2.95 3.485 -8 5 C-9.32 3.68 -10.64 2.36 -12 1 C-12.99 1.495 -12.99 1.495 -14 2 C-16.00800456 1.71887936 -18.01014051 1.38932033 -20 1 C-20 1.66 -20 2.32 -20 3 C-22.97 3.66 -25.94 4.32 -29 5 C-28 2 -28 2 -26.2421875 1.05078125 C-18.18329627 -1.46263532 -8.15192448 -2.71730816 0 0 Z " fill="#08BC3F" transform="translate(163,99)"/>
<path d="M0 0 C0.33 0 0.66 0 1 0 C1 5.61 1 11.22 1 17 C0.34 17 -0.32 17 -1 17 C-0.68934674 20.64599311 -0.37613576 24.29176234 -0.0625 27.9375 C0.02451172 28.95908203 0.11152344 29.98066406 0.20117188 31.03320312 C0.71877697 37.03358814 1.30752083 43.01722953 2 49 C-5.85543747 34.03658674 -3.76102115 15.78285659 0 0 Z " fill="#258C49" transform="translate(172,218)"/>
<path d="M0 0 C0.66 0 1.32 0 2 0 C1.83628906 1.17433594 1.67257813 2.34867188 1.50390625 3.55859375 C0.74601588 10.37960707 0.89358745 17.20876389 0.9375 24.0625 C0.94252686 25.41861813 0.94708766 26.77473808 0.95117188 28.13085938 C0.96287921 31.42061994 0.97927789 34.71028594 1 38 C-0.98 38.495 -0.98 38.495 -3 39 C-2.88130373 34.81891433 -2.75702727 30.63804212 -2.62768555 26.45727539 C-2.58450196 25.03642225 -2.54281592 23.61552274 -2.50268555 22.19458008 C-2.44457905 20.1465053 -2.38100362 18.09866035 -2.31640625 16.05078125 C-2.27974854 14.82012939 -2.24309082 13.58947754 -2.20532227 12.3215332 C-2.02692689 9.43560091 -1.60233316 6.81813525 -1 4 C-1 3.01 -1 2.02 -1 1 C-0.67 0.67 -0.34 0.34 0 0 Z " fill="#258D49" transform="translate(155,219)"/>
<path d="M0 0 C0 5.28842206 -3.04441267 9.73081831 -6 14 C-8.23906308 15.70131708 -10.46543093 16.73271546 -13 18 C-14.49113354 20.5908295 -14.49113354 20.5908295 -15 23 C-15.66 23 -16.32 23 -17 23 C-14.21858975 13.39919305 -7.80974818 6.02001422 0 0 Z " fill="#15AE49" transform="translate(124,105)"/>
<path d="M0 0 C0.66 0.33 1.32 0.66 2 1 C-7.27557662 10.99991666 -19.24860932 21.05551088 -33 24 C-33 23.34 -33 22.68 -33 22 C-32.27554687 21.68546875 -31.55109375 21.3709375 -30.8046875 21.046875 C-21.20227198 17.0974859 -21.20227198 17.0974859 -14 10 C-13.21625 9.690625 -12.4325 9.38125 -11.625 9.0625 C-8.65707481 7.86119695 -7.20030638 6.27617902 -5 4 C-4.34 4 -3.68 4 -3 4 C-2.67 3.01 -2.34 2.02 -2 1 C-1.34 0.67 -0.68 0.34 0 0 Z " fill="#1E7C43" transform="translate(312,294)"/>
<path d="M0 0 C2.51083114 1.25541557 2.87125446 2.50063488 4 5 C-1.24258516 8.11464243 -6.04675579 10.60668753 -12 12 C-12 12.66 -12 13.32 -12 14 C-14.64 14.33 -17.28 14.66 -20 15 C-19.01 12.69 -18.02 10.38 -17 8 C-15.39125 8.2784375 -15.39125 8.2784375 -13.75 8.5625 C-10.50500633 8.94108259 -8.97938242 8.95765864 -6 8 C-5.01 8 -4.02 8 -3 8 C-3.061875 7.05125 -3.12375 6.1025 -3.1875 5.125 C-3.0946875 3.578125 -3.0946875 3.578125 -3 2 C-2.01 1.34 -1.02 0.68 0 0 Z " fill="#0B8E37" transform="translate(291,304)"/>
<path d="M0 0 C0 0.66 0 1.32 0 2 C-2.8109497 4.64058911 -5.0282852 6.01006761 -8.6875 7.3125 C-12.36271526 8.72214212 -12.36271526 8.72214212 -13.4375 12.6875 C-13.623125 13.780625 -13.80875 14.87375 -14 16 C-15.1446875 16.2165625 -15.1446875 16.2165625 -16.3125 16.4375 C-20.99592332 17.35645461 -20.99592332 17.35645461 -24 21 C-24.66 20.67 -25.32 20.34 -26 20 C-20.98676205 13.55440835 -9.04127061 0 0 0 Z " fill="#15A044" transform="translate(214,168)"/>
<path d="M0 0 C10.23045284 1.69911367 18.7423154 8.60693284 25.05078125 16.59765625 C32.34181292 26.84736744 32.34181292 26.84736744 32 33 C30.97354726 30.94709452 29.95439587 28.90024097 29 26.8125 C28.12855431 24.82798477 28.12855431 24.82798477 26 24 C25.5359375 22.7934375 25.5359375 22.7934375 25.0625 21.5625 C24.15452711 18.70136041 24.15452711 18.70136041 21 17 C21 16.01 21 15.02 21 14 C20.01 14 19.02 14 18 14 C17.484375 13.29875 16.96875 12.5975 16.4375 11.875 C13.50092177 8.41134362 10.36012434 6.6421433 6.4375 4.4296875 C4.15185708 3.08907002 2.08484573 1.63119874 0 0 Z " fill="#289E4F" transform="translate(362,99)"/>
<path d="M0 0 C0 0.33 0 0.66 0 1 C-3.96 1 -7.92 1 -12 1 C-12 1.66 -12 2.32 -12 3 C-12.99902344 3.19335938 -13.99804688 3.38671875 -15.02734375 3.5859375 C-16.31769531 3.84632813 -17.60804688 4.10671875 -18.9375 4.375 C-20.22527344 4.63023437 -21.51304687 4.88546875 -22.83984375 5.1484375 C-23.88269531 5.42945313 -24.92554688 5.71046875 -26 6 C-26.33 6.66 -26.66 7.32 -27 8 C-27.99 8 -28.98 8 -30 8 C-30 7.34 -30 6.68 -30 6 C-31.65 6 -33.3 6 -35 6 C-31.86171842 2.86171842 -27.95147681 2.71165217 -23.6875 1.875 C-22.34220215 1.60671387 -22.34220215 1.60671387 -20.96972656 1.33300781 C-13.88283932 -0.00102439 -7.21578807 -0.47402987 0 0 Z " fill="#1C9F49" transform="translate(258,158)"/>
<path d="M0 0 C11.02092815 5.64791329 18.67044412 13.06536101 26 23 C25.67 23.66 25.34 24.32 25 25 C22.63459695 22.72220447 20.51299167 20.39885153 18.5 17.8125 C15.7849565 14.71892692 15.7849565 14.71892692 12 14 C12 12.68 12 11.36 12 10 C11.01 10 10.02 10 9 10 C8.34 9.34 7.68 8.68 7 8 C5.16151914 6.4693191 3.31414287 4.95032071 1.4609375 3.4375 C0.97882813 2.963125 0.49671875 2.48875 0 2 C0 1.34 0 0.68 0 0 Z " fill="#1F9749" transform="translate(294,170)"/>
<path d="M0 0 C1.31618998 0.78551657 2.62785228 1.5786237 3.9375 2.375 C4.66839844 2.81585938 5.39929688 3.25671875 6.15234375 3.7109375 C8 5 8 5 9 7 C13.24411911 9.40984262 13.24411911 9.40984262 18 10 C18 10.99 18 11.98 18 13 C18.56203125 13.13277344 19.1240625 13.26554687 19.703125 13.40234375 C22.09366153 14.02437111 24.41035775 14.77115041 26.75 15.5625 C27.54921875 15.83191406 28.3484375 16.10132813 29.171875 16.37890625 C29.77515625 16.58386719 30.3784375 16.78882813 31 17 C25.58692193 18.90902057 20.96868856 16.25615742 16 14 C10.08140057 10.72736267 4.34826691 7.24790834 0 2 C0 1.34 0 0.68 0 0 Z " fill="#1C6C3C" transform="translate(115,371)"/>
<path d="M0 0 C-1 3 -1 3 -3 4 C-3.433125 5.11375 -3.433125 5.11375 -3.875 6.25 C-6.18106977 11.88705943 -10.8353278 16.77207988 -16 20 C-18.9375 19.875 -18.9375 19.875 -21 19 C-20.67 18.34 -20.34 17.68 -20 17 C-17.4375 16.375 -17.4375 16.375 -15 16 C-15 15.01 -15 14.02 -15 13 C-13.36935236 11.94228261 -11.69719127 10.94726954 -10 10 C-7.34587182 8.00940386 -7.03431808 7.15911108 -6.3125 3.8125 C-6.209375 2.884375 -6.10625 1.95625 -6 1 C-3 0 -3 0 0 0 Z " fill="#068634" transform="translate(391,360)"/>
<path d="M0 0 C7.45049829 0.02871098 13.96804777 1.38930156 20.9375 3.875 C21.6586499 4.13168457 22.3797998 4.38836914 23.12280273 4.65283203 C27.01367205 6.09766179 30.50736965 7.71714572 34 10 C31.24913109 11.37543445 30.08079274 10.60276952 27.1875 9.6875 C26.29675781 9.40648437 25.40601563 9.12546875 24.48828125 8.8359375 C21.94889276 7.98283053 19.45851284 7.06535557 17 6 C17 5.34 17 4.68 17 4 C15.5459375 4.0309375 15.5459375 4.0309375 14.0625 4.0625 C11 4 11 4 10 3 C8.15108054 2.76636119 6.29511969 2.58696365 4.4375 2.4375 C3.42558594 2.35371094 2.41367187 2.26992187 1.37109375 2.18359375 C0.19740234 2.09271484 0.19740234 2.09271484 -1 2 C-0.67 1.34 -0.34 0.68 0 0 Z " fill="#1E9849" transform="translate(259,159)"/>
<path d="M0 0 C1.88428711 0.01353516 1.88428711 0.01353516 3.80664062 0.02734375 C6.89212522 0.05080751 9.97721205 0.08363799 13.0625 0.125 C13.0625 0.455 13.0625 0.785 13.0625 1.125 C12.38783691 1.13958252 11.71317383 1.15416504 11.01806641 1.16918945 C7.90735418 1.24449583 4.79762031 1.34087844 1.6875 1.4375 C0.62660156 1.46005859 -0.43429688 1.48261719 -1.52734375 1.50585938 C-9.67645713 1.78082946 -17.97347639 2.09452773 -23.9375 8.125 C-27.125 8.8125 -27.125 8.8125 -29.9375 9.125 C-28.9375 6.125 -28.9375 6.125 -27.3359375 5.02734375 C-26.66820312 4.70894531 -26.00046875 4.39054687 -25.3125 4.0625 C-24.33410156 3.58103516 -24.33410156 3.58103516 -23.3359375 3.08984375 C-15.42362467 -0.09312249 -8.500466 -0.11589518 0 0 Z " fill="#2FA354" transform="translate(155.9375,96.875)"/>
<path d="M0 0 C2.31 0.33 4.62 0.66 7 1 C7.33 2.32 7.66 3.64 8 5 C7.01 5 6.02 5 5 5 C4.67 5.99 4.34 6.98 4 8 C3.34 6.68 2.68 5.36 2 4 C-5.23947695 3.2507195 -5.23947695 3.2507195 -11.5625 6 C-12.036875 6.66 -12.51125 7.32 -13 8 C-13.66 8 -14.32 8 -15 8 C-15 6.35 -15 4.7 -15 3 C-9.87080814 0.89571616 -5.4389165 0.78244334 0 1 C0 0.67 0 0.34 0 0 Z " fill="#0AAB40" transform="translate(224,192)"/>
<path d="M0 0 C0.61328125 1.796875 0.61328125 1.796875 1 4 C-0.8125 7.25 -0.8125 7.25 -3 10 C-3.66 10 -4.32 10 -5 10 C-5.66 12.97 -6.32 15.94 -7 19 C-7.99 19 -8.98 19 -10 19 C-9.9175 19.928125 -9.835 20.85625 -9.75 21.8125 C-10 25 -10 25 -12 26.875 C-12.99 27.431875 -12.99 27.431875 -14 28 C-13.36658758 23.21214732 -11.41063415 19.37477673 -9.25 15.125 C-8.91484375 14.44308594 -8.5796875 13.76117188 -8.234375 13.05859375 C-5.87374259 8.3641543 -3.14396171 4.2102704 0 0 Z " fill="#22954B" transform="translate(187,189)"/>
<path d="M0 0 C0.66 0 1.32 0 2 0 C2.24234375 0.56589844 2.4846875 1.13179687 2.734375 1.71484375 C3.06953125 2.44832031 3.4046875 3.18179688 3.75 3.9375 C4.07484375 4.66839844 4.3996875 5.39929688 4.734375 6.15234375 C6.32976254 8.4814126 7.32608467 8.41573897 10 9 C10.99 10.485 10.99 10.485 12 12 C11.01 13.98 10.02 15.96 9 18 C8.34 17.67 7.68 17.34 7 17 C7 16.34 7 15.68 7 15 C6.34 15 5.68 15 5 15 C3.35 10.05 1.7 5.1 0 0 Z " fill="#149E40" transform="translate(340,200)"/>
<path d="M0 0 C0.66 0 1.32 0 2 0 C2 3.66666667 2 7.33333333 2 11 C1.34 11.66 0.68 12.32 0 13 C-0.66 13 -1.32 13 -2 13 C-2.99 16.465 -2.99 16.465 -4 20 C-4.33 20 -4.66 20 -5 20 C-5.22577402 14.5814234 -4.46670113 10.22512279 -3 5 C-2.34 5 -1.68 5 -1 5 C-0.67 3.35 -0.34 1.7 0 0 Z " fill="#08B63F" transform="translate(110,123)"/>
<path d="M0 0 C0 3.81307353 -1.03542447 5.74828878 -3 9 C-4.65948148 10.01187895 -6.32580562 11.0126546 -8 12 C-8.433125 13.2065625 -8.433125 13.2065625 -8.875 14.4375 C-10.5772072 18.31474974 -13.2694019 19.13470095 -17 21 C-15.96905133 18.42262834 -15.4891374 17.23715753 -12.9375 16 C-12.298125 15.67 -11.65875 15.34 -11 15 C-10.87625 14.42636719 -10.7525 13.85273438 -10.625 13.26171875 C-9.76952454 10.16596693 -8.08604389 8.2897861 -6.0625 5.8125 C-5.35222656 4.93207031 -4.64195312 4.05164063 -3.91015625 3.14453125 C-2 1 -2 1 0 0 Z " fill="#089237" transform="translate(336,293)"/>
<path d="M0 0 C1.65 0.33 3.3 0.66 5 1 C5 1.66 5 2.32 5 3 C6.65 3 8.3 3 10 3 C10.33 3.99 10.66 4.98 11 6 C11.99 6 12.98 6 14 6 C14 6.66 14 7.32 14 8 C14.804375 8.12375 15.60875 8.2475 16.4375 8.375 C17.283125 8.58125 18.12875 8.7875 19 9 C19.33 9.66 19.66 10.32 20 11 C15.73816852 10.36271679 12.30824131 8.86584981 8.4375 7 C3.37945142 4.53865454 3.37945142 4.53865454 -2 3 C-1.34 2.01 -0.68 1.02 0 0 Z " fill="#188B45" transform="translate(277,249)"/>
<path d="M0 0 C1.5625 1.125 1.5625 1.125 3 3 C2.8125 5.625 2.8125 5.625 2 9 C1.64427393 10.62465935 1.29016519 12.24967348 0.9375 13.875 C0.62656973 15.25035581 0.31461197 16.6254817 0 18 C-0.66 18 -1.32 18 -2 18 C-1.67 16.02 -1.34 14.04 -1 12 C-1.66 11.67 -2.32 11.34 -3 11 C-2.34 10.01 -1.68 9.02 -1 8 C-1.66 7.67 -2.32 7.34 -3 7 C-3 5.02 -3 3.04 -3 1 C-2.01 0.67 -1.02 0.34 0 0 Z " fill="#039834" transform="translate(163,285)"/>
<path d="M0 0 C9.9 0 19.8 0 30 0 C29.34 0.66 28.68 1.32 28 2 C27.01 2 26.02 2 25 2 C24.67 2.66 24.34 3.32 24 4 C24 3.34 24 2.68 24 2 C15.75 2 7.5 2 -1 2 C-0.67 1.34 -0.34 0.68 0 0 Z " fill="#05BF43" transform="translate(241,99)"/>
<path d="M0 0 C1 2 1 2 0.56274414 3.78759766 C0.30614014 4.48933105 0.04953613 5.19106445 -0.21484375 5.9140625 C-0.48876953 6.67460937 -0.76269531 7.43515625 -1.04492188 8.21875 C-1.33947266 9.0128125 -1.63402344 9.806875 -1.9375 10.625 C-2.22818359 11.42679688 -2.51886719 12.22859375 -2.81835938 13.0546875 C-3.53882525 15.03892138 -4.26855138 17.01978837 -5 19 C-5.99 19 -6.98 19 -8 19 C-7.67 16.36 -7.34 13.72 -7 11 C-6.01 10.67 -5.02 10.34 -4 10 C-3.896875 8.906875 -3.79375 7.81375 -3.6875 6.6875 C-3.02692273 3.14440371 -2.7972908 2.06756277 0 0 Z " fill="#14A143" transform="translate(163,198)"/>
<path d="M0 0 C3.16752425 3.16752425 3.36968427 3.49963525 3.625 7.625 C3.60877773 10.61148183 3.60877773 10.61148183 5 13 C5.08700342 14.63472882 5.10701063 16.27314055 5.09765625 17.91015625 C5.09443359 18.89951172 5.09121094 19.88886719 5.08789062 20.90820312 C5.07951172 21.94912109 5.07113281 22.99003906 5.0625 24.0625 C5.05798828 25.10728516 5.05347656 26.15207031 5.04882812 27.22851562 C5.03699913 29.8190666 5.02051689 32.40950559 5 35 C4.67 35 4.34 35 4 35 C4 28.73 4 22.46 4 16 C3.34 16 2.68 16 2 16 C1.34 10.72 0.68 5.44 0 0 Z " fill="#149842" transform="translate(346,215)"/>
<path d="M0 0 C2.8203125 -0.29296875 2.8203125 -0.29296875 6.125 -0.1875 C7.76855469 -0.14689453 7.76855469 -0.14689453 9.4453125 -0.10546875 C10.28835937 -0.07066406 11.13140625 -0.03585938 12 0 C12.33 0.66 12.66 1.32 13 2 C12.33613281 2.03738281 11.67226562 2.07476562 10.98828125 2.11328125 C3.91788643 2.50455625 3.91788643 2.50455625 -2 6 C-3.42074305 8.2640496 -4.68357378 10.5547115 -5.88671875 12.94140625 C-7 15 -7 15 -9 17 C-9.4375 14.5 -9.4375 14.5 -9 11 C-7.3937215 8.7613284 -5.63226299 6.82007682 -3.7265625 4.83203125 C-1.82059101 2.91178216 -1.82059101 2.91178216 0 0 Z " fill="#21954D" transform="translate(214,195)"/>
<path d="M0 0 C1.67542976 0.28604898 3.34385343 0.61781233 5 1 C5 1.66 5 2.32 5 3 C1.93753253 4.78409802 -0.22079273 5.22880021 -3.75 5.125 C-4.54921875 5.10695312 -5.3484375 5.08890625 -6.171875 5.0703125 C-6.77515625 5.04710937 -7.3784375 5.02390625 -8 5 C-8 5.66 -8 6.32 -8 7 C-8.99 7 -9.98 7 -11 7 C-11 5.35 -11 3.7 -11 2 C-9.68 2 -8.36 2 -7 2 C-3.17964327 1.74359405 -3.17964327 1.74359405 0 0 Z " fill="#06B53C" transform="translate(221,144)"/>
<path d="M0 0 C7.59 0.33 15.18 0.66 23 1 C22.67 2.32 22.34 3.64 22 5 C21.67 4.34 21.34 3.68 21 3 C18.45058627 2.68758629 15.99638487 2.48696579 13.4375 2.375 C12.72658203 2.33632813 12.01566406 2.29765625 11.28320312 2.2578125 C9.52257575 2.16328217 7.76132272 2.08054183 6 2 C5.67 2.99 5.34 3.98 5 5 C4.01 5 3.02 5 2 5 C2 3.68 2 2.36 2 1 C1.34 0.67 0.68 0.34 0 0 Z " fill="#048D33" transform="translate(240,338)"/>
<path d="M0 0 C3.79588866 0.54226981 5.47211993 2.20127563 8 5 C7.01 5.99 6.02 6.98 5 8 C3.02 7.34 1.04 6.68 -1 6 C-0.67 4.02 -0.34 2.04 0 0 Z " fill="#06BE3B" transform="translate(369,104)"/>
<path d="M0 0 C-0.94101563 0.59167969 -1.88203125 1.18335938 -2.8515625 1.79296875 C-4.10951567 2.59092412 -5.36732025 3.38911376 -6.625 4.1875 C-7.55119141 4.76854492 -7.55119141 4.76854492 -8.49609375 5.36132812 C-12.60499787 7.97805127 -16.31713422 10.81007164 -20 14 C-20 11 -20 11 -18.625 9.3125 C-17 8 -17 8 -15 8 C-15 7.34 -15 6.68 -15 6 C-14.01 6 -13.02 6 -12 6 C-12 5.34 -12 4.68 -12 4 C-9.00942369 0.01256492 -4.6882114 -1.56273713 0 0 Z " fill="#26974E" transform="translate(206,156)"/>
<path d="M0 0 C0.66 0 1.32 0 2 0 C2 0.66 2 1.32 2 2 C1.34 2 0.68 2 0 2 C0.20625 3.010625 0.4125 4.02125 0.625 5.0625 C1.03248664 9.34110977 0.56168628 12.0177 -1 16 C-1.99 16.66 -2.98 17.32 -4 18 C-3.34 14.7 -2.68 11.4 -2 8 C-2.66 7.67 -3.32 7.34 -4 7 C-3.34 6.67 -2.68 6.34 -2 6 C-1.62690101 4.34178227 -1.29299023 2.67422986 -1 1 C-0.67 0.67 -0.34 0.34 0 0 Z " fill="#098D38" transform="translate(156,314)"/>
<path d="M0 0 C-4.75 3 -4.75 3 -7 3 C-7.33 3.66 -7.66 4.32 -8 5 C-10.31 5 -12.62 5 -15 5 C-15 4.34 -15 3.68 -15 3 C-12.41464321 1.27642881 -10.96188386 0.55264982 -8.0625 -0.1875 C-7.39347656 -0.36667969 -6.72445312 -0.54585938 -6.03515625 -0.73046875 C-3.75319112 -1.03268678 -2.17973341 -0.68756692 0 0 Z " fill="#068B36" transform="translate(171,339)"/>
<path d="M0 0 C1.15957207 3.47871621 0.77456651 4.34219645 -0.4375 7.6875 C-0.72496094 8.49574219 -1.01242188 9.30398438 -1.30859375 10.13671875 C-1.53675781 10.75160156 -1.76492187 11.36648438 -2 12 C-1.01 12.33 -0.02 12.66 1 13 C-0.65614657 13.38218767 -2.32457024 13.71395102 -4 14 C-5 13 -5 13 -5.0625 9.4375 C-5.041875 8.303125 -5.02125 7.16875 -5 6 C-4.34 5.67 -3.68 5.34 -3 5 C-1.9590934 3.35857037 -0.95495674 1.69287785 0 0 Z " fill="#0F8A3C" transform="translate(154,330)"/>
<path d="M0 0 C-2.67312924 2.19578473 -4.67118118 3.19649201 -8 4 C-8.33 4.66 -8.66 5.32 -9 6 C-11.97 5.67 -14.94 5.34 -18 5 C-14.81996628 3.40998314 -11.75460122 2.06261842 -8.4375 0.8125 C-7.48746094 0.44769531 -6.53742188 0.08289063 -5.55859375 -0.29296875 C-3 -1 -3 -1 0 0 Z " fill="#098B36" transform="translate(196,330)"/>
<path d="M0 0 C3.05566461 2.96306871 5.97135828 6.01720161 8.8125 9.1875 C9.41707031 9.86167969 10.02164063 10.53585937 10.64453125 11.23046875 C12 13 12 13 12 15 C12.66 15 13.32 15 14 15 C14 15.66 14 16.32 14 17 C13.01 17 12.02 17 11 17 C11 16.01 11 15.02 11 14 C10.01 14 9.02 14 8 14 C5.58085776 11.36740403 4.13523734 9.40571201 3 6 C2.484375 5.505 1.96875 5.01 1.4375 4.5 C0 3 0 3 0 0 Z " fill="#1F8441" transform="translate(216,246)"/>
<path d="M0 0 C3.3 0.66 6.6 1.32 10 2 C10 3.98 10 5.96 10 8 C9.34 8 8.68 8 8 8 C7.67 7.34 7.34 6.68 7 6 C5.34561387 5.30341637 3.67745682 4.63903117 2 4 C1.01 3.34 0.02 2.68 -1 2 C-0.67 1.34 -0.34 0.68 0 0 Z " fill="#048432" transform="translate(125,376)"/>
<path d="M0 0 C-2.89642841 2.35082212 -5.65356331 3.83519406 -9.125 5.1875 C-10.42824219 5.70376953 -10.42824219 5.70376953 -11.7578125 6.23046875 C-14 7 -14 7 -16 7 C-16 6.01 -16 5.02 -16 4 C-12.535 3.505 -12.535 3.505 -9 3 C-9 2.34 -9 1.68 -9 1 C-5.92677456 0.08941469 -3.19902639 -0.08886184 0 0 Z " fill="#249B4E" transform="translate(222,148)"/>
<path d="M0 0 C7.23820173 0.34467627 11.91590189 2.10214991 18 6 C18 6.66 18 7.32 18 8 C13.6684766 6.70054298 9.87312061 4.97436756 5.9296875 2.8046875 C3.73314666 1.74341287 3.73314666 1.74341287 0 2 C0 1.34 0 0.68 0 0 Z " fill="#247644" transform="translate(202,308)"/>
<path d="M0 0 C1.83756033 2.7563405 3.42090566 5.52801867 5 8.4375 C5.7734375 9.85869141 5.7734375 9.85869141 6.5625 11.30859375 C7.74538644 13.52329147 8.89219303 15.7471041 10 18 C8.68 17.34 7.36 16.68 6 16 C6 15.01 6 14.02 6 13 C5.34 13 4.68 13 4 13 C1.04952165 8.38987758 -0.5497272 5.63470383 0 0 Z " fill="#238144" transform="translate(206,228)"/>
<path d="M0 0 C0 0.66 0 1.32 0 2 C-2.70935597 4.54515258 -5.335472 6.23806801 -8.75 7.625 C-12.08019566 8.61915311 -12.08019566 8.61915311 -13 11 C-13.99 10.67 -14.98 10.34 -16 10 C-3.42465753 0 -3.42465753 0 0 0 Z " fill="#24984B" transform="translate(214,168)"/>
<path d="M0 0 C4.33168317 -0.26252625 7.8803623 0.70756464 12 2 C12 2.99 12 3.98 12 5 C11.01 5.66 10.02 6.32 9 7 C7.6078125 6.0409375 7.6078125 6.0409375 6.1875 5.0625 C3.15780057 2.91377907 3.15780057 2.91377907 0 2 C0 1.34 0 0.68 0 0 Z " fill="#09B03F" transform="translate(264,161)"/>
<path d="M0 0 C3.35251476 1.67625738 3.76735755 5.36023326 5 8.75 C5.78431361 11.15703483 5.78431361 11.15703483 8 12 C8.73075648 14.3140622 9.40138258 16.64828869 10 19 C4.12445215 13.7772908 0.79314925 7.93149255 0 0 Z " fill="#21753F" transform="translate(105,352)"/>
<path d="M0 0 C-2.41267325 0.867242 -4.82904469 1.71896936 -7.25 2.5625 C-8.27287109 2.9327832 -8.27287109 2.9327832 -9.31640625 3.31054688 C-15.58342161 5.47053761 -15.58342161 5.47053761 -19 4 C-18.01 4 -17.02 4 -16 4 C-16 3.01 -16 2.02 -16 1 C-14.0852312 0.63571223 -12.16807707 0.28394694 -10.25 -0.0625 C-9.18265625 -0.25972656 -8.1153125 -0.45695312 -7.015625 -0.66015625 C-4.25228095 -0.97156937 -2.59053383 -0.8991416 0 0 Z " fill="#1C7C44" transform="translate(202,311)"/>
<path d="M0 0 C2.9266841 1.46334205 3.28059562 3.77516099 4.3359375 6.72265625 C5.33199313 10.13854114 5.68386761 13.45931726 6 17 C5.34 17.33 4.68 17.66 4 18 C3.34 14.37 2.68 10.74 2 7 C1.34 7 0.68 7 0 7 C0 4.69 0 2.38 0 0 Z " fill="#1E8F4A" transform="translate(327,208)"/>
<path d="M0 0 C0 3.69418201 -1.28179295 5.77836178 -3 9 C-6 9 -6 9 -9 7 C-8.34 6.01 -7.68 5.02 -7 4 C-6.34 4 -5.68 4 -5 4 C-3.30225062 2.70647667 -1.63260714 1.37482707 0 0 Z " fill="#089138" transform="translate(299,277)"/>
<path d="M0 0 C3 1 3 1 5 4 C4.625 6 4.625 6 4 8 C4 8.99 4 9.98 4 11 C3.34 10.34 2.68 9.68 2 9 C2 8.01 2 7.02 2 6 C0.68 5.34 -0.64 4.68 -2 4 C-1.34 2.68 -0.68 1.36 0 0 Z " fill="#06B03B" transform="translate(331,176)"/>
<path d="M0 0 C0 3.57870074 -0.64872567 4.39680342 -3 7 C-5 8 -5 8 -7 9 C-8.70496537 10.62746694 -10.37897032 12.28891311 -12 14 C-9.38243868 8.32861715 -5.24688193 3.43065357 0 0 Z " fill="#2EA457" transform="translate(124,105)"/>
<path d="M0 0 C0.66 0.33 1.32 0.66 2 1 C1.05065487 2.67180274 0.09026687 4.33733936 -0.875 6 C-1.40867187 6.928125 -1.94234375 7.85625 -2.4921875 8.8125 C-2.98976563 9.534375 -3.48734375 10.25625 -4 11 C-4.66 11 -5.32 11 -6 11 C-6.33 11.99 -6.66 12.98 -7 14 C-8 11 -8 11 -7.0625 8.8125 C-6.711875 8.214375 -6.36125 7.61625 -6 7 C-5.01 7 -4.02 7 -3 7 C-2.690625 6.030625 -2.38125 5.06125 -2.0625 4.0625 C-1 1 -1 1 0 0 Z " fill="#1D8042" transform="translate(322,280)"/>
<path d="M0 0 C3.53586014 3.17320782 5.58578031 5.16743695 6 10 C4.1875 9.8125 4.1875 9.8125 2 9 C0.1875 6.6875 0.1875 6.6875 -1 4 C-0.6875 1.6875 -0.6875 1.6875 0 0 Z " fill="#05BA41" transform="translate(384,116)"/>
<path d="M0 0 C0.33 0.66 0.66 1.32 1 2 C1.99 2.33 2.98 2.66 4 3 C3.67 4.32 3.34 5.64 3 7 C1.02 7.33 -0.96 7.66 -3 8 C-2.690625 7.236875 -2.38125 6.47375 -2.0625 5.6875 C-1.32106407 3.81210323 -0.63771783 1.91315348 0 0 Z " fill="#08BF3D" transform="translate(125,104)"/>
<path d="M0 0 C4.75 0.75 4.75 0.75 7 3 C9.19704511 3.67651207 9.19704511 3.67651207 11.625 4.125 C12.44226563 4.29257812 13.25953125 4.46015625 14.1015625 4.6328125 C14.72804687 4.75398438 15.35453125 4.87515625 16 5 C14.02 5.99 14.02 5.99 12 7 C11.67 6.34 11.34 5.68 11 5 C10.113125 5.103125 9.22625 5.20625 8.3125 5.3125 C3.99315142 4.90501428 2.74357025 3.2277297 0 0 Z " fill="#0C8B3C" transform="translate(209,329)"/>
<path d="M0 0 C0.33 0.66 0.66 1.32 1 2 C0.34 2 -0.32 2 -1 2 C-1.433125 2.928125 -1.433125 2.928125 -1.875 3.875 C-3 6 -3 6 -5 8 C-8.0625 7.75 -8.0625 7.75 -11 7 C-11.33 6.34 -11.66 5.68 -12 5 C-11.071875 5.020625 -10.14375 5.04125 -9.1875 5.0625 C-5.97713989 5.15769604 -5.97713989 5.15769604 -3 4 C-2.67 3.01 -2.34 2.02 -2 1 C-1.34 0.67 -0.68 0.34 0 0 Z " fill="#0B993E" transform="translate(271,255)"/>
<path d="M0 0 C2 3 2 3 2 7 C1.34 7 0.68 7 0 7 C-0.33 8.32 -0.66 9.64 -1 11 C-1.66 10.01 -2.32 9.02 -3 8 C-3.33 8.66 -3.66 9.32 -4 10 C-4 9.01 -4 8.02 -4 7 C-3.34 7 -2.68 7 -2 7 C-1.855625 6.401875 -1.71125 5.80375 -1.5625 5.1875 C-1.1127561 3.43849596 -0.57107659 1.71322977 0 0 Z " fill="#099838" transform="translate(342,279)"/>
<path d="M0 0 C0.99 0.33 1.98 0.66 3 1 C2.34 1 1.68 1 1 1 C1.185625 1.61875 1.37125 2.2375 1.5625 2.875 C2 5 2 5 1 7 C-0.65 6.67 -2.3 6.34 -4 6 C-4.33 6.66 -4.66 7.32 -5 8 C-5 7.01 -5 6.02 -5 5 C-4.34 5 -3.68 5 -3 5 C-2.67 4.01 -2.34 3.02 -2 2 C-1.34 2 -0.68 2 0 2 C0 1.34 0 0.68 0 0 Z " fill="#05B03A" transform="translate(214,168)"/>
<path d="M0 0 C0.99 0.33 1.98 0.66 3 1 C2.67 1.66 2.34 2.32 2 3 C1.34 3 0.68 3 0 3 C-0.33 3.99 -0.66 4.98 -1 6 C-4.0625 7.1875 -4.0625 7.1875 -7 8 C-7 7.34 -7 6.68 -7 6 C-6.34 6 -5.68 6 -5 6 C-5 5.34 -5 4.68 -5 4 C-4.01 3.34 -3.02 2.68 -2 2 C-1.34 1.34 -0.68 0.68 0 0 Z " fill="#16793B" transform="translate(370,379)"/>
<path d="M0 0 C0.66 1.32 1.32 2.64 2 4 C-0.24122198 6.24122198 -2.45024483 8.10824616 -5 10 C-5 8.68 -5 7.36 -5 6 C-4.34 6 -3.68 6 -3 6 C-2.690625 5.195625 -2.38125 4.39125 -2.0625 3.5625 C-1 1 -1 1 0 0 Z " fill="#059638" transform="translate(189,287)"/>
<path d="M0 0 C3.46581934 1.15527311 3.67870505 1.63086226 5.25 4.75 C6.60998606 7.61421306 7.01933846 8.76793849 6.75 12 C6.5025 12.66 6.255 13.32 6 14 C5.67 14 5.34 14 5 14 C5 11.69 5 9.38 5 7 C4.34 7 3.68 7 3 7 C0.70351351 4.4385343 0 3.52032428 0 0 Z " fill="#1F733B" transform="translate(162,281)"/>
<path d="M0 0 C3.66739101 3.66739101 4.125 7.86829525 4.125 12.875 C4.09322822 14.25026422 4.05498128 15.62546802 4 17 C3.67 17 3.34 17 3 17 C2.33333333 14.33333333 1.66666667 11.66666667 1 9 C0.814375 8.3090625 0.62875 7.618125 0.4375 6.90625 C-0.09871875 4.56986828 -0.06635079 2.38862837 0 0 Z " fill="#10A041" transform="translate(329,219)"/>
<path d="M0 0 C3.39217843 3.39217843 3.64374311 4.36866044 4 9 C3.7355646 11.34214207 3.41755362 13.68025766 3 16 C2.67 16 2.34 16 2 16 C1.34 10.72 0.68 5.44 0 0 Z " fill="#238C48" transform="translate(346,215)"/>
<path d="M0 0 C3.05009472 2.03339648 3.6730604 2.84346689 5.1875 6 C5.53167969 6.70125 5.87585938 7.4025 6.23046875 8.125 C7 10 7 10 7 12 C6.01 12 5.02 12 4 12 C3.3291288 10.3767313 2.66342971 8.75132422 2 7.125 C1.62875 6.22007812 1.2575 5.31515625 0.875 4.3828125 C0 2 0 2 0 0 Z " fill="#218C40" transform="translate(320,195)"/>
<path d="M0 0 C1 2 1 2 0.22265625 4.3828125 C-0.16019531 5.28773438 -0.54304687 6.19265625 -0.9375 7.125 C-1.31777344 8.03507813 -1.69804687 8.94515625 -2.08984375 9.8828125 C-2.39019531 10.58148438 -2.69054687 11.28015625 -3 12 C-3.66 11.67 -4.32 11.34 -5 11 C-4.54917531 9.53932801 -4.08906463 8.08151968 -3.625 6.625 C-3.36976563 5.81289062 -3.11453125 5.00078125 -2.8515625 4.1640625 C-2 2 -2 2 0 0 Z " fill="#21974A" transform="translate(163,198)"/>
<path d="M0 0 C1.65 0.33 3.3 0.66 5 1 C5 1.99 5 2.98 5 4 C4.34 4 3.68 4 3 4 C2.67 4.99 2.34 5.98 2 7 C1.01 6.67 0.02 6.34 -1 6 C-1 2 -1 2 0 0 Z " fill="#06B340" transform="translate(186,160)"/>
<path d="M0 0 C0.99 0.33 1.98 0.66 3 1 C2.01 1 1.02 1 0 1 C0 0.67 0 0.34 0 0 Z M-1 2 C-0.34 2 0.32 2 1 2 C1.33 2.66 1.66 3.32 2 4 C3.32 4.33 4.64 4.66 6 5 C3.03 5.66 0.06 6.32 -3 7 C-2 3 -2 3 -1 2 Z " fill="#0D8D3B" transform="translate(180,310)"/>
<path d="M0 0 C0.66 0 1.32 0 2 0 C1.91253716 1.43861294 1.80434652 2.87597508 1.6875 4.3125 C1.62949219 5.11300781 1.57148438 5.91351563 1.51171875 6.73828125 C0.91793306 9.36272334 0.04219706 10.30820672 -2 12 C-1.73958333 10.01432292 -1.47916667 8.02864583 -1.21875 6.04296875 C-0.946767 3.84528294 -0.946767 3.84528294 -1 1 C-0.67 0.67 -0.34 0.34 0 0 Z " fill="#1B9646" transform="translate(155,219)"/>
<path d="M0 0 C7.48291572 6.15034169 7.48291572 6.15034169 10 10 C9.67 10.66 9.34 11.32 9 12 C5.72764488 8.84884322 2.7974276 5.57449082 0 2 C0 1.34 0 0.68 0 0 Z " fill="#238A44" transform="translate(310,183)"/>
<path d="M0 0 C6.19887485 -0.37952295 10.4477112 0.1647887 16 3 C15.67 3.66 15.34 4.32 15 5 C10.05 3.68 5.1 2.36 0 1 C0 0.67 0 0.34 0 0 Z " fill="#0DB246" transform="translate(271,144)"/>
<path d="M0 0 C-1.97420135 2.52259061 -2.96745642 2.9929808 -6.1875 3.6875 C-7.5796875 3.8421875 -7.5796875 3.8421875 -9 4 C-8 1 -8 1 -6.1875 -0.25 C-3.66056586 -1.11637742 -2.47778006 -0.88492145 0 0 Z " fill="#21A94B" transform="translate(135,102)"/>
<path d="M0 0 C0.33 0.99 0.66 1.98 1 3 C-0.77554521 6.48986471 -2.24152313 9.24152313 -5 12 C-5.35338623 9.03155565 -5.5417682 6.84401782 -3.88671875 4.265625 C-2.64496832 2.79651181 -1.32662082 1.39295186 0 0 Z " fill="#208446" transform="translate(210,200)"/>
<path d="M0 0 C1.9375 0.8125 1.9375 0.8125 4 2 C4.33 2.99 4.66 3.98 5 5 C3 7 3 7 0 8 C-1.125 2.25 -1.125 2.25 0 0 Z " fill="#0AAC3A" transform="translate(161,192)"/>
<path d="M0 0 C0.93423645 3.01031744 1.04449911 3.86650268 0 7 C1.98 6.67 3.96 6.34 6 6 C3.08235 7.9451 1.37462715 8.45276317 -2 9 C-1.51421457 5.87709365 -1.0013988 3.00419641 0 0 Z " fill="#2C7549" transform="translate(177,310)"/>
<path d="M0 0 C2 1.3125 2 1.3125 4 3 C4 3.99 4 4.98 4 6 C1.36 5.67 -1.28 5.34 -4 5 C-3.67 4.34 -3.34 3.68 -3 3 C-2.01 3.33 -1.02 3.66 0 4 C0 2.68 0 1.36 0 0 Z " fill="#078F39" transform="translate(228,312)"/>
<path d="M0 0 C2.475 0.495 2.475 0.495 5 1 C5 1.66 5 2.32 5 3 C5.99 3.33 6.98 3.66 8 4 C7.67 4.66 7.34 5.32 7 6 C5.66666667 6 4.33333333 6 3 6 C2.01 4.02 1.02 2.04 0 0 Z " fill="#0EAE45" transform="translate(289,169)"/>
<path d="M0 0 C2.9375 0.375 2.9375 0.375 6 1 C6.33 1.66 6.66 2.32 7 3 C6.34 3.66 5.68 4.32 5 5 C5 4.34 5 3.68 5 3 C2.36 3.33 -0.28 3.66 -3 4 C-2.67 3.01 -2.34 2.02 -2 1 C-1.34 1.33 -0.68 1.66 0 2 C0 1.34 0 0.68 0 0 Z " fill="#0AB73E" transform="translate(313,160)"/>
<path d="M0 0 C1.65 0.33 3.3 0.66 5 1 C5 1.66 5 2.32 5 3 C3.1875 4.0625 3.1875 4.0625 1 5 C0.01 4.67 -0.98 4.34 -2 4 C-1.34 2.68 -0.68 1.36 0 0 Z " fill="#10B244" transform="translate(221,144)"/>
<path d="M0 0 C0.66 0.33 1.32 0.66 2 1 C-0.64 3.64 -3.28 6.28 -6 9 C-6 6 -6 6 -5 4 C-4.34 4 -3.68 4 -3 4 C-2.67 3.01 -2.34 2.02 -2 1 C-1.34 0.67 -0.68 0.34 0 0 Z " fill="#237E40" transform="translate(312,294)"/>
<path d="M0 0 C0.33 0 0.66 0 1 0 C1.33 4.62 1.66 9.24 2 14 C-1 11 -1 11 -1.07421875 8.30078125 C-0.94660156 7.31464844 -0.81898438 6.32851562 -0.6875 5.3125 C-0.56761719 4.31863281 -0.44773438 3.32476562 -0.32421875 2.30078125 C-0.21722656 1.54152344 -0.11023438 0.78226563 0 0 Z " fill="#278749" transform="translate(204,214)"/>
<path d="M0 0 C2.51083114 1.25541557 2.87125446 2.50063488 4 5 C2.02 5.33 0.04 5.66 -2 6 C-2.33 4.68 -2.66 3.36 -3 2 C-2.01 1.34 -1.02 0.68 0 0 Z " fill="#029230" transform="translate(291,304)"/>
<path d="M0 0 C3.57104439 1.87949705 5.54744301 3.17053157 7 7 C4.08482708 5.92598892 2.22189824 5.22189824 0 3 C0 2.01 0 1.02 0 0 Z " fill="#12A644" transform="translate(315,192)"/>
<path d="M0 0 C2.97 0.495 2.97 0.495 6 1 C5.67 1.99 5.34 2.98 5 4 C5 4.99 5 5.98 5 7 C0 1.125 0 1.125 0 0 Z " fill="#0A8437" transform="translate(114,368)"/>
<path d="M0 0 C1.13643966 3.40931897 0.86747764 4.00335456 -0.4375 7.1875 C-0.86869141 8.26064453 -0.86869141 8.26064453 -1.30859375 9.35546875 C-1.53675781 9.89816406 -1.76492187 10.44085938 -2 11 C-3.21563174 7.05347724 -2.53534125 4.83835312 -1 1 C-0.67 0.67 -0.34 0.34 0 0 Z " fill="#1D733C" transform="translate(154,330)"/>
<path d="M0 0 C0.33 0 0.66 0 1 0 C1.25 6.625 1.25 6.625 -1 10 C-1.66 10 -2.32 10 -3 10 C-2.01 6.7 -1.02 3.4 0 0 Z " fill="#129040" transform="translate(166,288)"/>
<path d="M0 0 C0.66 0 1.32 0 2 0 C2 2.97 2 5.94 2 9 C1.34 8.34 0.68 7.68 0 7 C0.33 6.34 0.66 5.68 1 5 C0.34 5 -0.32 5 -1 5 C-0.67 3.35 -0.34 1.7 0 0 Z " fill="#0D9A3E" transform="translate(154,258)"/>
<path d="M0 0 C0.66 0.66 1.32 1.32 2 2 C1.625 4.625 1.625 4.625 1 7 C0.67 6.34 0.34 5.68 0 5 C-0.99 4.67 -1.98 4.34 -3 4 C-2.01 2.68 -1.02 1.36 0 0 Z " fill="#0AAB3B" transform="translate(342,195)"/>
<path d="M0 0 C-1.6875 2.0625 -1.6875 2.0625 -4 4 C-6.75 3.75 -6.75 3.75 -9 3 C-6.40821726 0.40821726 -3.54324677 -1.77162338 0 0 Z " fill="#1E9B49" transform="translate(223,165)"/>
<path d="M0 0 C0.33 0.99 0.66 1.98 1 3 C0.01 3.495 0.01 3.495 -1 4 C-2.13350534 6.01669827 -2.13350534 6.01669827 -3 8 C-3.66 7.34 -4.32 6.68 -5 6 C-2.25 1.125 -2.25 1.125 0 0 Z " fill="#0E953E" transform="translate(323,277)"/>
<path d="M0 0 C1.32 0.33 2.64 0.66 4 1 C4 1.66 4 2.32 4 3 C4.99 3 5.98 3 7 3 C7 3.99 7 4.98 7 6 C6.01 6 5.02 6 4 6 C1.8125 3 1.8125 3 0 0 Z " fill="#0C9A43" transform="translate(242,249)"/>
<path d="M0 0 C1.76462683 3.08809695 2 4.23312136 2 8 C1.34 8 0.68 8 0 8 C0 7.01 0 6.02 0 5 C-0.66 5 -1.32 5 -2 5 C-1.125 1.125 -1.125 1.125 0 0 Z " fill="#04AC3E" transform="translate(237,208)"/>
</svg>
